<svg xmlns="http://www.w3.org/2000/svg" xmlns:xlink="http://www.w3.org/1999/xlink" width="500" zoomAndPan="magnify" viewBox="0 0 375 374.999991" height="500" preserveAspectRatio="xMidYMid meet" version="1.0"><defs><g/><clipPath id="b2c910c696"><path d="M 37.5 142.523438 L 127.457031 142.523438 L 127.457031 232.476562 L 37.5 232.476562 Z M 37.5 142.523438 " clip-rule="nonzero"/></clipPath><clipPath id="817a7a1803"><path d="M 54.75 142.523438 L 110.207031 142.523438 C 114.78125 142.523438 119.167969 144.339844 122.40625 147.574219 C 125.640625 150.808594 127.457031 155.195312 127.457031 159.773438 L 127.457031 215.226562 C 127.457031 219.804688 125.640625 224.191406 122.40625 227.425781 C 119.167969 230.660156 114.78125 232.476562 110.207031 232.476562 L 54.75 232.476562 C 50.175781 232.476562 45.789062 230.660156 42.550781 227.425781 C 39.316406 224.191406 37.5 219.804688 37.5 215.226562 L 37.5 159.773438 C 37.5 155.195312 39.316406 150.808594 42.550781 147.574219 C 45.789062 144.339844 50.175781 142.523438 54.75 142.523438 Z M 54.75 142.523438 " clip-rule="nonzero"/></clipPath><clipPath id="97b5dbe539"><path d="M 78.785156 155.316406 L 127.398438 155.316406 L 127.398438 204.277344 L 78.785156 204.277344 Z M 78.785156 155.316406 " clip-rule="nonzero"/></clipPath><clipPath id="b2f69ccdfa"><path d="M 37.5 155.316406 L 86.113281 155.316406 L 86.113281 204.21875 L 37.5 204.21875 Z M 37.5 155.316406 " clip-rule="nonzero"/></clipPath><clipPath id="fb675a7904"><path d="M 59.875 173.921875 L 105.089844 173.921875 L 105.089844 232.511719 L 59.875 232.511719 Z M 59.875 173.921875 " clip-rule="nonzero"/></clipPath></defs><g fill="#000000" fill-opacity="1"><g transform="translate(138.065492, 210.280193)"><g><path d="M 3.359375 0 L 3.359375 -1.125 C 4.691406 -1.539062 5.554688 -2.425781 5.953125 -3.78125 C 6.347656 -5.144531 6.546875 -7.265625 6.546875 -10.140625 L 6.546875 -40.96875 C 6.546875 -44.21875 6.347656 -46.773438 5.953125 -48.640625 C 5.554688 -50.503906 4.957031 -51.890625 4.15625 -52.796875 C 3.351562 -53.703125 2.34375 -54.367188 1.125 -54.796875 L 1.125 -55.90625 L 13.09375 -55.90625 L 32.828125 -23.15625 L 51.59375 -55.90625 L 62.9375 -55.90625 L 62.9375 -54.796875 C 61.71875 -54.367188 60.707031 -53.703125 59.90625 -52.796875 C 59.101562 -51.890625 58.503906 -50.503906 58.109375 -48.640625 C 57.710938 -46.773438 57.515625 -44.21875 57.515625 -40.96875 L 57.515625 -10.140625 C 57.515625 -7.265625 57.710938 -5.144531 58.109375 -3.78125 C 58.503906 -2.425781 59.367188 -1.539062 60.703125 -1.125 L 60.703125 0 L 45.84375 0 L 45.84375 -1.125 C 47.175781 -1.539062 48.039062 -2.425781 48.4375 -3.78125 C 48.84375 -5.144531 49.046875 -7.265625 49.046875 -10.140625 L 49.046875 -48.796875 L 29.875 -15.171875 L 28.03125 -15.171875 L 7.984375 -48.078125 L 7.984375 -14.9375 C 7.984375 -11.6875 8.195312 -9.128906 8.625 -7.265625 C 9.050781 -5.398438 9.71875 -4.015625 10.625 -3.109375 C 11.53125 -2.203125 12.675781 -1.539062 14.0625 -1.125 L 14.0625 0 Z M 3.359375 0 "/></g></g></g><g fill="#000000" fill-opacity="1"><g transform="translate(204.754657, 210.280193)"><g><path d="M 3.75 0 L 3.75 -1.125 C 5.082031 -1.539062 5.945312 -2.425781 6.34375 -3.78125 C 6.75 -5.144531 6.953125 -7.265625 6.953125 -10.140625 L 6.953125 -45.765625 C 6.953125 -48.640625 6.75 -50.753906 6.34375 -52.109375 C 5.945312 -53.472656 5.082031 -54.367188 3.75 -54.796875 L 3.75 -55.90625 L 18.609375 -55.90625 L 18.609375 -54.796875 C 17.273438 -54.367188 16.410156 -53.472656 16.015625 -52.109375 C 15.617188 -50.753906 15.421875 -48.640625 15.421875 -45.765625 L 15.421875 -10.140625 C 15.421875 -7.265625 15.617188 -5.144531 16.015625 -3.78125 C 16.410156 -2.425781 17.273438 -1.539062 18.609375 -1.125 L 18.609375 0 Z M 3.75 0 "/></g></g></g><g fill="#000000" fill-opacity="1"><g transform="translate(227.117492, 210.280193)"><g><path d="M 44.40625 0.5625 C 42.226562 0.5625 40.484375 0.0703125 39.171875 -0.90625 C 37.867188 -1.894531 36.722656 -3.398438 35.734375 -5.421875 C 34.753906 -7.453125 33.625 -10.007812 32.34375 -13.09375 C 31.175781 -16.03125 30.191406 -18.492188 29.390625 -20.484375 C 28.597656 -22.484375 27.828125 -24.082031 27.078125 -25.28125 C 26.328125 -26.476562 25.421875 -27.34375 24.359375 -27.875 C 23.296875 -28.40625 21.882812 -28.671875 20.125 -28.671875 L 15.421875 -28.671875 L 15.421875 -10.140625 C 15.421875 -7.265625 15.617188 -5.144531 16.015625 -3.78125 C 16.410156 -2.425781 17.273438 -1.539062 18.609375 -1.125 L 18.609375 0 L 3.75 0 L 3.75 -1.125 C 5.082031 -1.539062 5.945312 -2.425781 6.34375 -3.78125 C 6.75 -5.144531 6.953125 -7.265625 6.953125 -10.140625 L 6.953125 -45.765625 C 6.953125 -48.640625 6.75 -50.753906 6.34375 -52.109375 C 5.945312 -53.472656 5.082031 -54.367188 3.75 -54.796875 L 3.75 -55.90625 L 20.53125 -55.90625 C 24.894531 -55.90625 28.445312 -55.546875 31.1875 -54.828125 C 33.9375 -54.109375 36.054688 -53.148438 37.546875 -51.953125 C 39.035156 -50.753906 40.070312 -49.382812 40.65625 -47.84375 C 41.238281 -46.300781 41.53125 -44.726562 41.53125 -43.125 C 41.53125 -39.457031 40.25 -36.34375 37.6875 -33.78125 C 35.132812 -31.226562 31.195312 -29.632812 25.875 -29 C 28.113281 -28.726562 29.960938 -28.269531 31.421875 -27.625 C 32.890625 -26.988281 34.144531 -26.070312 35.1875 -24.875 C 36.226562 -23.675781 37.171875 -22.160156 38.015625 -20.328125 C 38.867188 -18.492188 39.828125 -16.242188 40.890625 -13.578125 C 42.328125 -10.066406 43.445312 -7.40625 44.25 -5.59375 C 45.050781 -3.78125 45.796875 -2.566406 46.484375 -1.953125 C 47.179688 -1.335938 48.007812 -1.03125 48.96875 -1.03125 C 49.175781 -1.03125 49.375 -1.03125 49.5625 -1.03125 C 49.75 -1.03125 49.945312 -1.0625 50.15625 -1.125 L 50.15625 0 C 49.25 0.207031 48.238281 0.351562 47.125 0.4375 C 46.007812 0.519531 45.101562 0.5625 44.40625 0.5625 Z M 15.421875 -29.953125 L 20.53125 -29.953125 C 23.5625 -29.953125 25.992188 -30.457031 27.828125 -31.46875 C 29.671875 -32.476562 31.003906 -33.847656 31.828125 -35.578125 C 32.648438 -37.316406 33.0625 -39.195312 33.0625 -41.21875 C 33.0625 -43.394531 32.582031 -45.507812 31.625 -47.5625 C 30.664062 -49.613281 29.148438 -51.304688 27.078125 -52.640625 C 25.003906 -53.972656 22.289062 -54.640625 18.9375 -54.640625 C 17.8125 -54.640625 16.640625 -54.554688 15.421875 -54.390625 Z M 15.421875 -29.953125 "/></g></g></g><g fill="#000000" fill-opacity="1"><g transform="translate(276.475452, 210.280193)"><g><path d="M -1.671875 0 L -1.671875 -1.125 C -0.453125 -1.539062 0.703125 -2.363281 1.796875 -3.59375 C 2.890625 -4.820312 3.96875 -6.765625 5.03125 -9.421875 L 19.96875 -46.484375 C 20.550781 -47.972656 20.5 -49.410156 19.8125 -50.796875 L 18.765625 -53.03125 L 26.59375 -56.546875 L 46.40625 -9.34375 C 47.519531 -6.738281 48.597656 -4.820312 49.640625 -3.59375 C 50.679688 -2.363281 51.65625 -1.539062 52.5625 -1.125 L 52.5625 0 L 38.015625 0 L 38.015625 -1.125 C 39.347656 -1.539062 39.84375 -2.363281 39.5 -3.59375 C 39.15625 -4.820312 38.421875 -6.738281 37.296875 -9.34375 L 32.515625 -20.84375 L 11.1875 -20.84375 L 6.546875 -9.421875 C 5.484375 -6.765625 5.054688 -4.796875 5.265625 -3.515625 C 5.484375 -2.234375 6.257812 -1.4375 7.59375 -1.125 L 7.59375 0 Z M 11.65625 -22.125 L 31.953125 -22.125 L 21.640625 -46.8125 Z M 11.65625 -22.125 "/></g></g></g><g fill="#000000" fill-opacity="1"><g transform="translate(144.535819, 231.399801)"><g><path d="M 5.34375 0 L 3.828125 0 L 0.421875 -9.796875 L 1.65625 -9.796875 L 4.53125 -1.4375 L 4.6875 -1.4375 L 7.53125 -9.796875 L 8.75 -9.796875 Z M 5.34375 0 "/></g></g></g><g fill="#000000" fill-opacity="1"><g transform="translate(153.692356, 231.399801)"><g><path d="M 5.375 0.140625 C 4.53125 0.140625 3.773438 -0.0390625 3.109375 -0.40625 C 2.453125 -0.769531 1.929688 -1.328125 1.546875 -2.078125 C 1.171875 -2.835938 0.984375 -3.78125 0.984375 -4.90625 C 0.984375 -6.019531 1.171875 -6.953125 1.546875 -7.703125 C 1.929688 -8.460938 2.453125 -9.023438 3.109375 -9.390625 C 3.773438 -9.765625 4.53125 -9.953125 5.375 -9.953125 C 6.226562 -9.953125 6.984375 -9.765625 7.640625 -9.390625 C 8.304688 -9.023438 8.828125 -8.460938 9.203125 -7.703125 C 9.585938 -6.953125 9.78125 -6.019531 9.78125 -4.90625 C 9.78125 -3.78125 9.585938 -2.835938 9.203125 -2.078125 C 8.828125 -1.328125 8.304688 -0.769531 7.640625 -0.40625 C 6.984375 -0.0390625 6.226562 0.140625 5.375 0.140625 Z M 5.375 -0.921875 C 6.394531 -0.921875 7.175781 -1.238281 7.71875 -1.875 C 8.269531 -2.519531 8.546875 -3.53125 8.546875 -4.90625 C 8.546875 -6.28125 8.269531 -7.285156 7.71875 -7.921875 C 7.175781 -8.554688 6.394531 -8.875 5.375 -8.875 C 3.269531 -8.875 2.21875 -7.550781 2.21875 -4.90625 C 2.21875 -2.25 3.269531 -0.921875 5.375 -0.921875 Z M 5.375 -0.921875 "/></g></g></g><g fill="#000000" fill-opacity="1"><g transform="translate(164.444249, 231.399801)"><g><path d="M 2.640625 0 L 1.484375 0 L 1.484375 -9.796875 L 2.640625 -9.796875 Z M 2.640625 0 "/></g></g></g><g fill="#000000" fill-opacity="1"><g transform="translate(168.566705, 231.399801)"><g><path d="M 5.421875 0.140625 C 4.554688 0.140625 3.789062 -0.0546875 3.125 -0.453125 C 2.457031 -0.847656 1.929688 -1.421875 1.546875 -2.171875 C 1.171875 -2.929688 0.984375 -3.84375 0.984375 -4.90625 C 0.984375 -5.957031 1.171875 -6.863281 1.546875 -7.625 C 1.929688 -8.382812 2.457031 -8.960938 3.125 -9.359375 C 3.789062 -9.753906 4.554688 -9.953125 5.421875 -9.953125 C 6.335938 -9.953125 7.097656 -9.773438 7.703125 -9.421875 C 8.316406 -9.078125 8.753906 -8.554688 9.015625 -7.859375 L 8.28125 -7.375 L 8.109375 -7.375 C 7.847656 -7.925781 7.5 -8.316406 7.0625 -8.546875 C 6.632812 -8.785156 6.085938 -8.90625 5.421875 -8.90625 C 4.804688 -8.90625 4.257812 -8.769531 3.78125 -8.5 C 3.300781 -8.226562 2.921875 -7.789062 2.640625 -7.1875 C 2.359375 -6.59375 2.21875 -5.832031 2.21875 -4.90625 C 2.21875 -3.96875 2.359375 -3.203125 2.640625 -2.609375 C 2.921875 -2.015625 3.300781 -1.582031 3.78125 -1.3125 C 4.257812 -1.039062 4.804688 -0.90625 5.421875 -0.90625 C 6.128906 -0.90625 6.707031 -1.0625 7.15625 -1.375 C 7.613281 -1.695312 7.953125 -2.21875 8.171875 -2.9375 L 8.328125 -2.9375 L 9.109375 -2.546875 C 8.878906 -1.679688 8.445312 -1.015625 7.8125 -0.546875 C 7.1875 -0.0859375 6.390625 0.140625 5.421875 0.140625 Z M 5.421875 0.140625 "/></g></g></g><g fill="#000000" fill-opacity="1"><g transform="translate(178.179058, 231.399801)"><g><path d="M 2.640625 -4.625 L 2.640625 -0.953125 L 7.625 -0.953125 L 7.625 0 L 1.484375 0 L 1.484375 -9.796875 L 7.53125 -9.796875 L 7.53125 -8.859375 L 2.640625 -8.859375 L 2.640625 -5.578125 L 6.953125 -5.578125 L 6.953125 -4.625 Z M 2.640625 -4.625 "/></g></g></g><g fill="#000000" fill-opacity="1"><g transform="translate(186.457483, 231.399801)"><g/></g></g><g fill="#000000" fill-opacity="1"><g transform="translate(189.822477, 231.399801)"><g><path d="M 7.734375 -5.828125 L 7.734375 -9.796875 L 8.875 -9.796875 L 8.875 0 L 7.734375 0 L 7.734375 -4.84375 L 2.640625 -4.84375 L 2.640625 0 L 1.484375 0 L 1.484375 -9.796875 L 2.640625 -9.796875 L 2.640625 -5.828125 Z M 7.734375 -5.828125 "/></g></g></g><g fill="#000000" fill-opacity="1"><g transform="translate(200.185586, 231.399801)"><g><path d="M 2.640625 -4.625 L 2.640625 -0.953125 L 7.625 -0.953125 L 7.625 0 L 1.484375 0 L 1.484375 -9.796875 L 7.53125 -9.796875 L 7.53125 -8.859375 L 2.640625 -8.859375 L 2.640625 -5.578125 L 6.953125 -5.578125 L 6.953125 -4.625 Z M 2.640625 -4.625 "/></g></g></g><g fill="#000000" fill-opacity="1"><g transform="translate(208.46401, 231.399801)"><g><path d="M 8.828125 0 L 7.59375 0 L 6.6875 -2.6875 L 2.515625 -2.6875 L 1.59375 0 L 0.390625 0 L 3.8125 -9.796875 L 5.40625 -9.796875 Z M 4.515625 -8.625 L 2.828125 -3.65625 L 6.359375 -3.65625 L 4.6875 -8.625 Z M 4.515625 -8.625 "/></g></g></g><g fill="#000000" fill-opacity="1"><g transform="translate(217.674173, 231.399801)"><g><path d="M 2.640625 -9.796875 L 2.640625 -0.953125 L 7.359375 -0.953125 L 7.359375 0 L 1.484375 0 L 1.484375 -9.796875 Z M 2.640625 -9.796875 "/></g></g></g><g fill="#000000" fill-opacity="1"><g transform="translate(225.443156, 231.399801)"><g><path d="M 7.65625 -9.796875 L 7.65625 -8.828125 L 4.578125 -8.828125 L 4.578125 0 L 3.4375 0 L 3.4375 -8.828125 L 0.359375 -8.828125 L 0.359375 -9.796875 Z M 7.65625 -9.796875 "/></g></g></g><g fill="#000000" fill-opacity="1"><g transform="translate(233.446747, 231.399801)"><g><path d="M 7.734375 -5.828125 L 7.734375 -9.796875 L 8.875 -9.796875 L 8.875 0 L 7.734375 0 L 7.734375 -4.84375 L 2.640625 -4.84375 L 2.640625 0 L 1.484375 0 L 1.484375 -9.796875 L 2.640625 -9.796875 L 2.640625 -5.828125 Z M 7.734375 -5.828125 "/></g></g></g><g fill="#000000" fill-opacity="1"><g transform="translate(243.809856, 231.399801)"><g/></g></g><g fill="#000000" fill-opacity="1"><g transform="translate(247.17485, 231.399801)"><g><path d="M 8.828125 0 L 7.59375 0 L 6.6875 -2.6875 L 2.515625 -2.6875 L 1.59375 0 L 0.390625 0 L 3.8125 -9.796875 L 5.40625 -9.796875 Z M 4.515625 -8.625 L 2.828125 -3.65625 L 6.359375 -3.65625 L 4.6875 -8.625 Z M 4.515625 -8.625 "/></g></g></g><g fill="#000000" fill-opacity="1"><g transform="translate(256.385012, 231.399801)"><g><path d="M 4.28125 0.140625 C 3.664062 0.140625 3.113281 0.0546875 2.625 -0.109375 C 2.132812 -0.273438 1.722656 -0.492188 1.390625 -0.765625 C 1.066406 -1.046875 0.828125 -1.347656 0.671875 -1.671875 L 1.296875 -2.4375 L 1.46875 -2.4375 C 2.070312 -1.414062 3.007812 -0.90625 4.28125 -0.90625 C 5.019531 -0.90625 5.566406 -1.054688 5.921875 -1.359375 C 6.285156 -1.671875 6.46875 -2.101562 6.46875 -2.65625 C 6.46875 -2.96875 6.40625 -3.234375 6.28125 -3.453125 C 6.164062 -3.679688 5.972656 -3.875 5.703125 -4.03125 C 5.429688 -4.195312 5.0625 -4.335938 4.59375 -4.453125 L 3.453125 -4.734375 C 2.597656 -4.941406 1.96875 -5.269531 1.5625 -5.71875 C 1.15625 -6.164062 0.953125 -6.734375 0.953125 -7.421875 C 0.953125 -7.910156 1.078125 -8.34375 1.328125 -8.71875 C 1.578125 -9.101562 1.941406 -9.40625 2.421875 -9.625 C 2.910156 -9.84375 3.488281 -9.953125 4.15625 -9.953125 C 4.894531 -9.953125 5.515625 -9.847656 6.015625 -9.640625 C 6.523438 -9.429688 6.9375 -9.117188 7.25 -8.703125 L 6.671875 -7.9375 L 6.515625 -7.9375 C 6.234375 -8.28125 5.898438 -8.53125 5.515625 -8.6875 C 5.128906 -8.851562 4.675781 -8.9375 4.15625 -8.9375 C 3.476562 -8.9375 2.960938 -8.800781 2.609375 -8.53125 C 2.265625 -8.269531 2.09375 -7.910156 2.09375 -7.453125 C 2.09375 -7.003906 2.21875 -6.648438 2.46875 -6.390625 C 2.726562 -6.128906 3.160156 -5.925781 3.765625 -5.78125 L 4.9375 -5.5 C 5.894531 -5.28125 6.585938 -4.9375 7.015625 -4.46875 C 7.441406 -4.007812 7.65625 -3.421875 7.65625 -2.703125 C 7.65625 -2.148438 7.53125 -1.660156 7.28125 -1.234375 C 7.03125 -0.804688 6.648438 -0.46875 6.140625 -0.21875 C 5.640625 0.0195312 5.019531 0.140625 4.28125 0.140625 Z M 4.28125 0.140625 "/></g></g></g><g fill="#000000" fill-opacity="1"><g transform="translate(264.784094, 231.399801)"><g><path d="M 4.28125 0.140625 C 3.664062 0.140625 3.113281 0.0546875 2.625 -0.109375 C 2.132812 -0.273438 1.722656 -0.492188 1.390625 -0.765625 C 1.066406 -1.046875 0.828125 -1.347656 0.671875 -1.671875 L 1.296875 -2.4375 L 1.46875 -2.4375 C 2.070312 -1.414062 3.007812 -0.90625 4.28125 -0.90625 C 5.019531 -0.90625 5.566406 -1.054688 5.921875 -1.359375 C 6.285156 -1.671875 6.46875 -2.101562 6.46875 -2.65625 C 6.46875 -2.96875 6.40625 -3.234375 6.28125 -3.453125 C 6.164062 -3.679688 5.972656 -3.875 5.703125 -4.03125 C 5.429688 -4.195312 5.0625 -4.335938 4.59375 -4.453125 L 3.453125 -4.734375 C 2.597656 -4.941406 1.96875 -5.269531 1.5625 -5.71875 C 1.15625 -6.164062 0.953125 -6.734375 0.953125 -7.421875 C 0.953125 -7.910156 1.078125 -8.34375 1.328125 -8.71875 C 1.578125 -9.101562 1.941406 -9.40625 2.421875 -9.625 C 2.910156 -9.84375 3.488281 -9.953125 4.15625 -9.953125 C 4.894531 -9.953125 5.515625 -9.847656 6.015625 -9.640625 C 6.523438 -9.429688 6.9375 -9.117188 7.25 -8.703125 L 6.671875 -7.9375 L 6.515625 -7.9375 C 6.234375 -8.28125 5.898438 -8.53125 5.515625 -8.6875 C 5.128906 -8.851562 4.675781 -8.9375 4.15625 -8.9375 C 3.476562 -8.9375 2.960938 -8.800781 2.609375 -8.53125 C 2.265625 -8.269531 2.09375 -7.910156 2.09375 -7.453125 C 2.09375 -7.003906 2.21875 -6.648438 2.46875 -6.390625 C 2.726562 -6.128906 3.160156 -5.925781 3.765625 -5.78125 L 4.9375 -5.5 C 5.894531 -5.28125 6.585938 -4.9375 7.015625 -4.46875 C 7.441406 -4.007812 7.65625 -3.421875 7.65625 -2.703125 C 7.65625 -2.148438 7.53125 -1.660156 7.28125 -1.234375 C 7.03125 -0.804688 6.648438 -0.46875 6.140625 -0.21875 C 5.640625 0.0195312 5.019531 0.140625 4.28125 0.140625 Z M 4.28125 0.140625 "/></g></g></g><g fill="#000000" fill-opacity="1"><g transform="translate(273.183184, 231.399801)"><g><path d="M 2.640625 0 L 1.484375 0 L 1.484375 -9.796875 L 2.640625 -9.796875 Z M 2.640625 0 "/></g></g></g><g fill="#000000" fill-opacity="1"><g transform="translate(277.30564, 231.399801)"><g><path d="M 4.28125 0.140625 C 3.664062 0.140625 3.113281 0.0546875 2.625 -0.109375 C 2.132812 -0.273438 1.722656 -0.492188 1.390625 -0.765625 C 1.066406 -1.046875 0.828125 -1.347656 0.671875 -1.671875 L 1.296875 -2.4375 L 1.46875 -2.4375 C 2.070312 -1.414062 3.007812 -0.90625 4.28125 -0.90625 C 5.019531 -0.90625 5.566406 -1.054688 5.921875 -1.359375 C 6.285156 -1.671875 6.46875 -2.101562 6.46875 -2.65625 C 6.46875 -2.96875 6.40625 -3.234375 6.28125 -3.453125 C 6.164062 -3.679688 5.972656 -3.875 5.703125 -4.03125 C 5.429688 -4.195312 5.0625 -4.335938 4.59375 -4.453125 L 3.453125 -4.734375 C 2.597656 -4.941406 1.96875 -5.269531 1.5625 -5.71875 C 1.15625 -6.164062 0.953125 -6.734375 0.953125 -7.421875 C 0.953125 -7.910156 1.078125 -8.34375 1.328125 -8.71875 C 1.578125 -9.101562 1.941406 -9.40625 2.421875 -9.625 C 2.910156 -9.84375 3.488281 -9.953125 4.15625 -9.953125 C 4.894531 -9.953125 5.515625 -9.847656 6.015625 -9.640625 C 6.523438 -9.429688 6.9375 -9.117188 7.25 -8.703125 L 6.671875 -7.9375 L 6.515625 -7.9375 C 6.234375 -8.28125 5.898438 -8.53125 5.515625 -8.6875 C 5.128906 -8.851562 4.675781 -8.9375 4.15625 -8.9375 C 3.476562 -8.9375 2.960938 -8.800781 2.609375 -8.53125 C 2.265625 -8.269531 2.09375 -7.910156 2.09375 -7.453125 C 2.09375 -7.003906 2.21875 -6.648438 2.46875 -6.390625 C 2.726562 -6.128906 3.160156 -5.925781 3.765625 -5.78125 L 4.9375 -5.5 C 5.894531 -5.28125 6.585938 -4.9375 7.015625 -4.46875 C 7.441406 -4.007812 7.65625 -3.421875 7.65625 -2.703125 C 7.65625 -2.148438 7.53125 -1.660156 7.28125 -1.234375 C 7.03125 -0.804688 6.648438 -0.46875 6.140625 -0.21875 C 5.640625 0.0195312 5.019531 0.140625 4.28125 0.140625 Z M 4.28125 0.140625 "/></g></g></g><g fill="#000000" fill-opacity="1"><g transform="translate(285.704729, 231.399801)"><g><path d="M 7.65625 -9.796875 L 7.65625 -8.828125 L 4.578125 -8.828125 L 4.578125 0 L 3.4375 0 L 3.4375 -8.828125 L 0.359375 -8.828125 L 0.359375 -9.796875 Z M 7.65625 -9.796875 "/></g></g></g><g fill="#000000" fill-opacity="1"><g transform="translate(293.708313, 231.399801)"><g><path d="M 8.828125 0 L 7.59375 0 L 6.6875 -2.6875 L 2.515625 -2.6875 L 1.59375 0 L 0.390625 0 L 3.8125 -9.796875 L 5.40625 -9.796875 Z M 4.515625 -8.625 L 2.828125 -3.65625 L 6.359375 -3.65625 L 4.6875 -8.625 Z M 4.515625 -8.625 "/></g></g></g><g fill="#000000" fill-opacity="1"><g transform="translate(302.918482, 231.399801)"><g><path d="M 2.609375 0 L 1.484375 0 L 1.484375 -9.796875 L 2.890625 -9.796875 L 7.671875 -2.3125 L 7.84375 -2.34375 L 7.84375 -9.796875 L 8.96875 -9.796875 L 8.96875 0 L 7.765625 0 L 2.78125 -8.015625 L 2.609375 -7.984375 Z M 2.609375 0 "/></g></g></g><g fill="#000000" fill-opacity="1"><g transform="translate(313.368736, 231.399801)"><g><path d="M 7.65625 -9.796875 L 7.65625 -8.828125 L 4.578125 -8.828125 L 4.578125 0 L 3.4375 0 L 3.4375 -8.828125 L 0.359375 -8.828125 L 0.359375 -9.796875 Z M 7.65625 -9.796875 "/></g></g></g><g clip-path="url(#b2c910c696)"><g clip-path="url(#817a7a1803)"><path fill="#000000" d="M 37.5 142.523438 L 127.457031 142.523438 L 127.457031 232.476562 L 37.5 232.476562 Z M 37.5 142.523438 " fill-opacity="1" fill-rule="nonzero"/></g></g><g clip-path="url(#97b5dbe539)"><path fill="#2fb33c" d="M 127.28125 178.773438 L 127.28125 178.097656 L 114.996094 178.097656 C 114.6875 178.097656 114.402344 178.304688 114.351562 178.617188 L 113.9375 180.375 L 111.84375 169.773438 C 111.792969 169.460938 111.507812 169.230469 111.171875 169.230469 C 110.835938 169.230469 110.574219 169.460938 110.523438 169.796875 L 106 198.117188 L 102.222656 155.9375 C 102.171875 155.574219 101.886719 155.316406 101.550781 155.316406 C 101.214844 155.316406 100.902344 155.574219 100.878906 155.9375 L 99.066406 175.589844 L 97.644531 172.953125 C 97.515625 172.71875 97.257812 172.566406 97 172.589844 C 96.738281 172.617188 96.507812 172.796875 96.429688 173.054688 L 93.429688 182.210938 L 89.394531 171.246094 C 89.292969 170.988281 89.035156 170.804688 88.75 170.804688 C 88.464844 170.804688 88.207031 170.988281 88.128906 171.273438 L 85.828125 178.125 L 37.671875 178.125 L 37.671875 179.46875 L 86.292969 179.46875 C 86.578125 179.46875 86.835938 179.289062 86.9375 179.003906 L 88.800781 173.496094 L 92.859375 184.488281 C 92.964844 184.746094 93.222656 184.925781 93.480469 184.925781 L 93.507812 184.925781 C 93.792969 184.925781 94.050781 184.746094 94.128906 184.460938 L 97.230469 174.96875 L 98.964844 178.175781 C 99.09375 178.433594 99.402344 178.566406 99.6875 178.511719 C 99.972656 178.460938 100.207031 178.203125 100.230469 177.917969 L 101.574219 163.410156 L 105.171875 203.597656 C 105.195312 203.933594 105.480469 204.191406 105.816406 204.21875 L 105.84375 204.21875 C 106.179688 204.21875 106.464844 203.984375 106.515625 203.648438 L 111.300781 173.730469 L 113.265625 183.710938 C 113.316406 184.019531 113.601562 184.253906 113.910156 184.253906 C 114.222656 184.253906 114.507812 184.046875 114.585938 183.738281 L 115.59375 179.445312 L 127.332031 179.445312 Z M 127.28125 178.773438 " fill-opacity="1" fill-rule="nonzero"/></g><g clip-path="url(#b2f69ccdfa)"><path fill="#2fb33c" d="M 86 180.761719 L 86 181.433594 L 73.714844 181.433594 C 73.402344 181.433594 73.121094 181.226562 73.066406 180.917969 L 72.652344 179.160156 L 70.558594 189.761719 C 70.507812 190.074219 70.222656 190.304688 69.886719 190.304688 C 69.550781 190.304688 69.292969 190.074219 69.238281 189.738281 L 64.714844 161.417969 L 60.9375 203.597656 C 60.886719 203.960938 60.601562 204.21875 60.265625 204.21875 C 59.929688 204.21875 59.621094 203.960938 59.59375 203.597656 L 57.785156 183.945312 L 56.359375 186.582031 C 56.230469 186.8125 55.972656 186.96875 55.714844 186.945312 C 55.457031 186.917969 55.222656 186.738281 55.144531 186.476562 L 52.144531 177.324219 L 48.113281 188.289062 C 48.007812 188.546875 47.75 188.726562 47.464844 188.726562 C 47.179688 188.726562 46.921875 188.546875 46.84375 188.261719 L 44.542969 181.410156 L -3.609375 181.410156 L -3.609375 180.066406 L 45.007812 180.066406 C 45.292969 180.066406 45.550781 180.246094 45.65625 180.53125 L 47.515625 186.039062 L 51.578125 175.046875 C 51.679688 174.789062 51.9375 174.609375 52.199219 174.609375 L 52.222656 174.609375 C 52.507812 174.609375 52.765625 174.789062 52.84375 175.074219 L 55.949219 184.5625 L 57.679688 181.359375 C 57.808594 181.097656 58.121094 180.96875 58.40625 181.019531 C 58.6875 181.074219 58.921875 181.332031 58.949219 181.617188 L 60.292969 196.125 L 63.886719 155.9375 C 63.914062 155.601562 64.195312 155.339844 64.535156 155.316406 L 64.558594 155.316406 C 64.894531 155.316406 65.179688 155.546875 65.230469 155.882812 L 70.015625 185.804688 L 71.980469 175.824219 C 72.03125 175.511719 72.316406 175.28125 72.628906 175.28125 C 72.9375 175.28125 73.222656 175.488281 73.300781 175.796875 L 74.308594 180.089844 L 86.050781 180.089844 Z M 86 180.761719 " fill-opacity="1" fill-rule="nonzero"/></g><g clip-path="url(#fb675a7904)"><path fill="#ffffff" d="M 82.484375 212.699219 C 87.828125 212.699219 92.140625 208.355469 92.140625 203.011719 L 92.175781 183.628906 C 92.175781 178.269531 87.847656 173.941406 82.484375 173.941406 C 77.136719 173.941406 72.792969 178.269531 72.792969 183.628906 L 72.792969 203.011719 C 72.792969 208.355469 77.136719 212.699219 82.484375 212.699219 Z M 99.601562 203.011719 C 99.601562 212.699219 91.414062 219.484375 82.484375 219.484375 C 73.570312 219.484375 65.363281 212.699219 65.363281 203.011719 L 59.875 203.011719 C 59.875 214.042969 68.660156 223.148438 79.253906 224.714844 L 79.253906 235.3125 L 85.714844 235.3125 L 85.714844 224.714844 C 96.308594 223.148438 105.09375 214.042969 105.09375 203.011719 Z M 99.601562 203.011719 " fill-opacity="1" fill-rule="nonzero"/></g></svg>