<svg xmlns="http://www.w3.org/2000/svg" xmlns:xlink="http://www.w3.org/1999/xlink" width="400" zoomAndPan="magnify" viewBox="50 100 275 200" height="200" preserveAspectRatio="xMidYMid meet" version="1.0"><defs><g/></defs><g fill="#000000" fill-opacity="1"><g transform="translate(35.468744, 223.99998)"><g><path d="M 5.375 0 L 5.375 -1.796875 C 7.507812 -2.472656 8.894531 -3.898438 9.53125 -6.078125 C 10.175781 -8.253906 10.5 -11.644531 10.5 -16.25 L 10.5 -65.65625 C 10.5 -70.863281 10.175781 -74.957031 9.53125 -77.9375 C 8.894531 -80.925781 7.9375 -83.144531 6.65625 -84.59375 C 5.375 -86.039062 3.753906 -87.109375 1.796875 -87.796875 L 1.796875 -89.59375 L 20.984375 -89.59375 L 52.59375 -37.109375 L 82.671875 -89.59375 L 100.859375 -89.59375 L 100.859375 -87.796875 C 98.890625 -87.109375 97.265625 -86.039062 95.984375 -84.59375 C 94.703125 -83.144531 93.742188 -80.925781 93.109375 -77.9375 C 92.472656 -74.957031 92.15625 -70.863281 92.15625 -65.65625 L 92.15625 -16.25 C 92.15625 -11.644531 92.472656 -8.253906 93.109375 -6.078125 C 93.742188 -3.898438 95.128906 -2.472656 97.265625 -1.796875 L 97.265625 0 L 73.46875 0 L 73.46875 -1.796875 C 75.59375 -2.472656 76.972656 -3.898438 77.609375 -6.078125 C 78.253906 -8.253906 78.578125 -11.644531 78.578125 -16.25 L 78.578125 -78.203125 L 47.859375 -24.3125 L 44.921875 -24.3125 L 12.796875 -77.046875 L 12.796875 -23.9375 C 12.796875 -18.726562 13.132812 -14.628906 13.8125 -11.640625 C 14.5 -8.660156 15.566406 -6.441406 17.015625 -4.984375 C 18.472656 -3.535156 20.3125 -2.472656 22.53125 -1.796875 L 22.53125 0 Z M 5.375 0 "/></g></g></g><g fill="#000000" fill-opacity="1"><g transform="translate(142.322623, 223.99998)"><g><path d="M 6.015625 0 L 6.015625 -1.796875 C 8.148438 -2.472656 9.535156 -3.898438 10.171875 -6.078125 C 10.816406 -8.253906 11.140625 -11.644531 11.140625 -16.25 L 11.140625 -73.328125 C 11.140625 -77.941406 10.816406 -81.332031 10.171875 -83.5 C 9.535156 -85.675781 8.148438 -87.109375 6.015625 -87.796875 L 6.015625 -89.59375 L 29.828125 -89.59375 L 29.828125 -87.796875 C 27.691406 -87.109375 26.300781 -85.675781 25.65625 -83.5 C 25.019531 -81.332031 24.703125 -77.941406 24.703125 -73.328125 L 24.703125 -16.25 C 24.703125 -11.644531 25.019531 -8.253906 25.65625 -6.078125 C 26.300781 -3.898438 27.691406 -2.472656 29.828125 -1.796875 L 29.828125 0 Z M 6.015625 0 "/></g></g></g><g fill="#000000" fill-opacity="1"><g transform="translate(178.153866, 223.99998)"><g><path d="M 71.15625 0.890625 C 67.65625 0.890625 64.859375 0.101562 62.765625 -1.46875 C 60.679688 -3.050781 58.847656 -5.460938 57.265625 -8.703125 C 55.691406 -11.941406 53.878906 -16.035156 51.828125 -20.984375 C 49.953125 -25.679688 48.375 -29.628906 47.09375 -32.828125 C 45.8125 -36.023438 44.570312 -38.582031 43.375 -40.5 C 42.1875 -42.425781 40.738281 -43.816406 39.03125 -44.671875 C 37.320312 -45.523438 35.0625 -45.953125 32.25 -45.953125 L 24.703125 -45.953125 L 24.703125 -16.25 C 24.703125 -11.644531 25.019531 -8.253906 25.65625 -6.078125 C 26.300781 -3.898438 27.691406 -2.472656 29.828125 -1.796875 L 29.828125 0 L 6.015625 0 L 6.015625 -1.796875 C 8.148438 -2.472656 9.535156 -3.898438 10.171875 -6.078125 C 10.816406 -8.253906 11.140625 -11.644531 11.140625 -16.25 L 11.140625 -73.328125 C 11.140625 -77.941406 10.816406 -81.332031 10.171875 -83.5 C 9.535156 -85.675781 8.148438 -87.109375 6.015625 -87.796875 L 6.015625 -89.59375 L 32.890625 -89.59375 C 39.890625 -89.59375 45.582031 -89.015625 49.96875 -87.859375 C 54.363281 -86.710938 57.753906 -85.175781 60.140625 -83.25 C 62.535156 -81.332031 64.203125 -79.132812 65.140625 -76.65625 C 66.078125 -74.1875 66.546875 -71.671875 66.546875 -69.109375 C 66.546875 -63.222656 64.5 -58.234375 60.40625 -54.140625 C 56.3125 -50.046875 50 -47.484375 41.46875 -46.453125 C 45.050781 -46.023438 48.015625 -45.300781 50.359375 -44.28125 C 52.703125 -43.257812 54.707031 -41.785156 56.375 -39.859375 C 58.039062 -37.941406 59.554688 -35.507812 60.921875 -32.5625 C 62.285156 -29.625 63.820312 -26.019531 65.53125 -21.75 C 67.832031 -16.125 69.625 -11.859375 70.90625 -8.953125 C 72.1875 -6.054688 73.378906 -4.113281 74.484375 -3.125 C 75.597656 -2.144531 76.921875 -1.65625 78.453125 -1.65625 C 78.796875 -1.65625 79.113281 -1.65625 79.40625 -1.65625 C 79.707031 -1.65625 80.03125 -1.703125 80.375 -1.796875 L 80.375 0 C 78.925781 0.34375 77.304688 0.578125 75.515625 0.703125 C 73.722656 0.828125 72.269531 0.890625 71.15625 0.890625 Z M 24.703125 -48 L 32.890625 -48 C 37.753906 -48 41.65625 -48.804688 44.59375 -50.421875 C 47.539062 -52.046875 49.675781 -54.242188 51 -57.015625 C 52.320312 -59.785156 52.984375 -62.796875 52.984375 -66.046875 C 52.984375 -69.535156 52.210938 -72.921875 50.671875 -76.203125 C 49.140625 -79.492188 46.707031 -82.207031 43.375 -84.34375 C 40.050781 -86.476562 35.703125 -87.546875 30.328125 -87.546875 C 28.535156 -87.546875 26.660156 -87.414062 24.703125 -87.15625 Z M 24.703125 -48 "/></g></g></g><g fill="#000000" fill-opacity="1"><g transform="translate(257.23852, 223.99998)"><g><path d="M -2.6875 0 L -2.6875 -1.796875 C -0.726562 -2.472656 1.125 -3.789062 2.875 -5.75 C 4.625 -7.71875 6.351562 -10.835938 8.0625 -15.109375 L 32 -74.484375 C 32.9375 -76.878906 32.847656 -79.179688 31.734375 -81.390625 L 30.078125 -84.984375 L 42.625 -90.609375 L 74.359375 -14.96875 C 76.148438 -10.789062 77.875 -7.71875 79.53125 -5.75 C 81.195312 -3.789062 82.757812 -2.472656 84.21875 -1.796875 L 84.21875 0 L 60.921875 0 L 60.921875 -1.796875 C 63.054688 -2.472656 63.84375 -3.789062 63.28125 -5.75 C 62.726562 -7.71875 61.554688 -10.789062 59.765625 -14.96875 L 52.09375 -33.40625 L 17.921875 -33.40625 L 10.5 -15.109375 C 8.789062 -10.835938 8.101562 -7.675781 8.4375 -5.625 C 8.78125 -3.582031 10.019531 -2.304688 12.15625 -1.796875 L 12.15625 0 Z M 18.6875 -35.453125 L 51.1875 -35.453125 L 34.6875 -75 Z M 18.6875 -35.453125 "/></g></g></g><g fill="#000000" fill-opacity="1"><g transform="translate(45.835936, 257.839289)"><g><path d="M 8.546875 0 L 6.125 0 L 0.671875 -15.703125 L 2.640625 -15.703125 L 7.25 -2.3125 L 7.515625 -2.3125 L 12.078125 -15.703125 L 14.015625 -15.703125 Z M 8.546875 0 "/></g></g></g><g fill="#000000" fill-opacity="1"><g transform="translate(60.507157, 257.839289)"><g><path d="M 8.609375 0.21875 C 7.253906 0.21875 6.046875 -0.0703125 4.984375 -0.65625 C 3.921875 -1.238281 3.082031 -2.132812 2.46875 -3.34375 C 1.863281 -4.550781 1.5625 -6.054688 1.5625 -7.859375 C 1.5625 -9.648438 1.863281 -11.148438 2.46875 -12.359375 C 3.082031 -13.566406 3.921875 -14.460938 4.984375 -15.046875 C 6.046875 -15.640625 7.253906 -15.9375 8.609375 -15.9375 C 9.972656 -15.9375 11.1875 -15.640625 12.25 -15.046875 C 13.3125 -14.460938 14.144531 -13.566406 14.75 -12.359375 C 15.351562 -11.148438 15.65625 -9.648438 15.65625 -7.859375 C 15.65625 -6.054688 15.351562 -4.550781 14.75 -3.34375 C 14.144531 -2.132812 13.3125 -1.238281 12.25 -0.65625 C 11.1875 -0.0703125 9.972656 0.21875 8.609375 0.21875 Z M 8.609375 -1.484375 C 10.242188 -1.484375 11.5 -1.992188 12.375 -3.015625 C 13.25 -4.035156 13.6875 -5.648438 13.6875 -7.859375 C 13.6875 -10.054688 13.25 -11.664062 12.375 -12.6875 C 11.5 -13.707031 10.242188 -14.21875 8.609375 -14.21875 C 5.234375 -14.21875 3.546875 -12.097656 3.546875 -7.859375 C 3.546875 -3.609375 5.234375 -1.484375 8.609375 -1.484375 Z M 8.609375 -1.484375 "/></g></g></g><g fill="#000000" fill-opacity="1"><g transform="translate(77.734566, 257.839289)"><g><path d="M 4.21875 0 L 2.375 0 L 2.375 -15.703125 L 4.21875 -15.703125 Z M 4.21875 0 "/></g></g></g><g fill="#000000" fill-opacity="1"><g transform="translate(84.339843, 257.839289)"><g><path d="M 8.6875 0.21875 C 7.3125 0.21875 6.082031 -0.09375 5 -0.71875 C 3.925781 -1.351562 3.082031 -2.273438 2.46875 -3.484375 C 1.863281 -4.703125 1.5625 -6.160156 1.5625 -7.859375 C 1.5625 -9.554688 1.863281 -11.007812 2.46875 -12.21875 C 3.082031 -13.4375 3.925781 -14.359375 5 -14.984375 C 6.082031 -15.617188 7.3125 -15.9375 8.6875 -15.9375 C 10.144531 -15.9375 11.359375 -15.65625 12.328125 -15.09375 C 13.304688 -14.539062 14.015625 -13.707031 14.453125 -12.59375 L 13.265625 -11.8125 L 13 -11.8125 C 12.570312 -12.707031 12.015625 -13.34375 11.328125 -13.71875 C 10.640625 -14.09375 9.757812 -14.28125 8.6875 -14.28125 C 7.695312 -14.28125 6.816406 -14.054688 6.046875 -13.609375 C 5.285156 -13.171875 4.675781 -12.472656 4.21875 -11.515625 C 3.769531 -10.566406 3.546875 -9.347656 3.546875 -7.859375 C 3.546875 -6.367188 3.769531 -5.144531 4.21875 -4.1875 C 4.675781 -3.238281 5.285156 -2.539062 6.046875 -2.09375 C 6.816406 -1.65625 7.695312 -1.4375 8.6875 -1.4375 C 9.820312 -1.4375 10.75 -1.691406 11.46875 -2.203125 C 12.195312 -2.710938 12.734375 -3.539062 13.078125 -4.6875 L 13.359375 -4.6875 L 14.59375 -4.078125 C 14.21875 -2.691406 13.523438 -1.628906 12.515625 -0.890625 C 11.515625 -0.148438 10.238281 0.21875 8.6875 0.21875 Z M 8.6875 0.21875 "/></g></g></g><g fill="#000000" fill-opacity="1"><g transform="translate(99.741404, 257.839289)"><g><path d="M 4.21875 -7.40625 L 4.21875 -1.53125 L 12.21875 -1.53125 L 12.21875 0 L 2.375 0 L 2.375 -15.703125 L 12.046875 -15.703125 L 12.046875 -14.1875 L 4.21875 -14.1875 L 4.21875 -8.921875 L 11.125 -8.921875 L 11.125 -7.40625 Z M 4.21875 -7.40625 "/></g></g></g><g fill="#000000" fill-opacity="1"><g transform="translate(113.005655, 257.839289)"><g/></g></g><g fill="#000000" fill-opacity="1"><g transform="translate(118.397275, 257.839289)"><g><path d="M 12.390625 -9.328125 L 12.390625 -15.703125 L 14.21875 -15.703125 L 14.21875 0 L 12.390625 0 L 12.390625 -7.765625 L 4.21875 -7.765625 L 4.21875 0 L 2.375 0 L 2.375 -15.703125 L 4.21875 -15.703125 L 4.21875 -9.328125 Z M 12.390625 -9.328125 "/></g></g></g><g fill="#000000" fill-opacity="1"><g transform="translate(135.001747, 257.839289)"><g><path d="M 4.21875 -7.40625 L 4.21875 -1.53125 L 12.21875 -1.53125 L 12.21875 0 L 2.375 0 L 2.375 -15.703125 L 12.046875 -15.703125 L 12.046875 -14.1875 L 4.21875 -14.1875 L 4.21875 -8.921875 L 11.125 -8.921875 L 11.125 -7.40625 Z M 4.21875 -7.40625 "/></g></g></g><g fill="#000000" fill-opacity="1"><g transform="translate(148.265998, 257.839289)"><g><path d="M 14.140625 0 L 12.15625 0 L 10.703125 -4.3125 L 4.015625 -4.3125 L 2.5625 0 L 0.625 0 L 6.109375 -15.703125 L 8.65625 -15.703125 Z M 7.234375 -13.796875 L 4.53125 -5.859375 L 10.1875 -5.859375 L 7.5 -13.796875 Z M 7.234375 -13.796875 "/></g></g></g><g fill="#000000" fill-opacity="1"><g transform="translate(163.023142, 257.839289)"><g><path d="M 4.21875 -15.703125 L 4.21875 -1.53125 L 11.78125 -1.53125 L 11.78125 0 L 2.375 0 L 2.375 -15.703125 Z M 4.21875 -15.703125 "/></g></g></g><g fill="#000000" fill-opacity="1"><g transform="translate(175.471131, 257.839289)"><g><path d="M 12.25 -15.703125 L 12.25 -14.140625 L 7.34375 -14.140625 L 7.34375 0 L 5.5 0 L 5.5 -14.140625 L 0.578125 -14.140625 L 0.578125 -15.703125 Z M 12.25 -15.703125 "/></g></g></g><g fill="#000000" fill-opacity="1"><g transform="translate(188.295025, 257.839289)"><g><path d="M 12.390625 -9.328125 L 12.390625 -15.703125 L 14.21875 -15.703125 L 14.21875 0 L 12.390625 0 L 12.390625 -7.765625 L 4.21875 -7.765625 L 4.21875 0 L 2.375 0 L 2.375 -15.703125 L 4.21875 -15.703125 L 4.21875 -9.328125 Z M 12.390625 -9.328125 "/></g></g></g><g fill="#000000" fill-opacity="1"><g transform="translate(204.899497, 257.839289)"><g/></g></g><g fill="#000000" fill-opacity="1"><g transform="translate(210.291117, 257.839289)"><g><path d="M 14.140625 0 L 12.15625 0 L 10.703125 -4.3125 L 4.015625 -4.3125 L 2.5625 0 L 0.625 0 L 6.109375 -15.703125 L 8.65625 -15.703125 Z M 7.234375 -13.796875 L 4.53125 -5.859375 L 10.1875 -5.859375 L 7.5 -13.796875 Z M 7.234375 -13.796875 "/></g></g></g><g fill="#000000" fill-opacity="1"><g transform="translate(225.048261, 257.839289)"><g><path d="M 6.859375 0.21875 C 5.867188 0.21875 4.984375 0.0859375 4.203125 -0.171875 C 3.421875 -0.441406 2.769531 -0.796875 2.25 -1.234375 C 1.726562 -1.671875 1.335938 -2.148438 1.078125 -2.671875 L 2.078125 -3.90625 L 2.359375 -3.90625 C 3.328125 -2.257812 4.828125 -1.4375 6.859375 -1.4375 C 8.046875 -1.4375 8.925781 -1.679688 9.5 -2.171875 C 10.070312 -2.671875 10.359375 -3.363281 10.359375 -4.25 C 10.359375 -4.757812 10.265625 -5.191406 10.078125 -5.546875 C 9.890625 -5.910156 9.578125 -6.21875 9.140625 -6.46875 C 8.703125 -6.726562 8.109375 -6.953125 7.359375 -7.140625 L 5.515625 -7.578125 C 4.148438 -7.910156 3.144531 -8.4375 2.5 -9.15625 C 1.851562 -9.875 1.53125 -10.785156 1.53125 -11.890625 C 1.53125 -12.671875 1.726562 -13.367188 2.125 -13.984375 C 2.53125 -14.597656 3.117188 -15.078125 3.890625 -15.421875 C 4.660156 -15.765625 5.582031 -15.9375 6.65625 -15.9375 C 7.84375 -15.9375 8.84375 -15.769531 9.65625 -15.4375 C 10.46875 -15.101562 11.117188 -14.601562 11.609375 -13.9375 L 10.703125 -12.71875 L 10.4375 -12.71875 C 9.976562 -13.269531 9.441406 -13.671875 8.828125 -13.921875 C 8.210938 -14.179688 7.488281 -14.3125 6.65625 -14.3125 C 5.570312 -14.3125 4.75 -14.097656 4.1875 -13.671875 C 3.632812 -13.253906 3.359375 -12.675781 3.359375 -11.9375 C 3.359375 -11.226562 3.5625 -10.660156 3.96875 -10.234375 C 4.382812 -9.816406 5.070312 -9.492188 6.03125 -9.265625 L 7.921875 -8.8125 C 9.441406 -8.457031 10.539062 -7.910156 11.21875 -7.171875 C 11.90625 -6.429688 12.25 -5.484375 12.25 -4.328125 C 12.25 -3.441406 12.050781 -2.65625 11.65625 -1.96875 C 11.257812 -1.289062 10.65625 -0.753906 9.84375 -0.359375 C 9.039062 0.0234375 8.046875 0.21875 6.859375 0.21875 Z M 6.859375 0.21875 "/></g></g></g><g fill="#000000" fill-opacity="1"><g transform="translate(238.505837, 257.839289)"><g><path d="M 6.859375 0.21875 C 5.867188 0.21875 4.984375 0.0859375 4.203125 -0.171875 C 3.421875 -0.441406 2.769531 -0.796875 2.25 -1.234375 C 1.726562 -1.671875 1.335938 -2.148438 1.078125 -2.671875 L 2.078125 -3.90625 L 2.359375 -3.90625 C 3.328125 -2.257812 4.828125 -1.4375 6.859375 -1.4375 C 8.046875 -1.4375 8.925781 -1.679688 9.5 -2.171875 C 10.070312 -2.671875 10.359375 -3.363281 10.359375 -4.25 C 10.359375 -4.757812 10.265625 -5.191406 10.078125 -5.546875 C 9.890625 -5.910156 9.578125 -6.21875 9.140625 -6.46875 C 8.703125 -6.726562 8.109375 -6.953125 7.359375 -7.140625 L 5.515625 -7.578125 C 4.148438 -7.910156 3.144531 -8.4375 2.5 -9.15625 C 1.851562 -9.875 1.53125 -10.785156 1.53125 -11.890625 C 1.53125 -12.671875 1.726562 -13.367188 2.125 -13.984375 C 2.53125 -14.597656 3.117188 -15.078125 3.890625 -15.421875 C 4.660156 -15.765625 5.582031 -15.9375 6.65625 -15.9375 C 7.84375 -15.9375 8.84375 -15.769531 9.65625 -15.4375 C 10.46875 -15.101562 11.117188 -14.601562 11.609375 -13.9375 L 10.703125 -12.71875 L 10.4375 -12.71875 C 9.976562 -13.269531 9.441406 -13.671875 8.828125 -13.921875 C 8.210938 -14.179688 7.488281 -14.3125 6.65625 -14.3125 C 5.570312 -14.3125 4.75 -14.097656 4.1875 -13.671875 C 3.632812 -13.253906 3.359375 -12.675781 3.359375 -11.9375 C 3.359375 -11.226562 3.5625 -10.660156 3.96875 -10.234375 C 4.382812 -9.816406 5.070312 -9.492188 6.03125 -9.265625 L 7.921875 -8.8125 C 9.441406 -8.457031 10.539062 -7.910156 11.21875 -7.171875 C 11.90625 -6.429688 12.25 -5.484375 12.25 -4.328125 C 12.25 -3.441406 12.050781 -2.65625 11.65625 -1.96875 C 11.257812 -1.289062 10.65625 -0.753906 9.84375 -0.359375 C 9.039062 0.0234375 8.046875 0.21875 6.859375 0.21875 Z M 6.859375 0.21875 "/></g></g></g><g fill="#000000" fill-opacity="1"><g transform="translate(251.963424, 257.839289)"><g><path d="M 4.21875 0 L 2.375 0 L 2.375 -15.703125 L 4.21875 -15.703125 Z M 4.21875 0 "/></g></g></g><g fill="#000000" fill-opacity="1"><g transform="translate(258.568702, 257.839289)"><g><path d="M 6.859375 0.21875 C 5.867188 0.21875 4.984375 0.0859375 4.203125 -0.171875 C 3.421875 -0.441406 2.769531 -0.796875 2.25 -1.234375 C 1.726562 -1.671875 1.335938 -2.148438 1.078125 -2.671875 L 2.078125 -3.90625 L 2.359375 -3.90625 C 3.328125 -2.257812 4.828125 -1.4375 6.859375 -1.4375 C 8.046875 -1.4375 8.925781 -1.679688 9.5 -2.171875 C 10.070312 -2.671875 10.359375 -3.363281 10.359375 -4.25 C 10.359375 -4.757812 10.265625 -5.191406 10.078125 -5.546875 C 9.890625 -5.910156 9.578125 -6.21875 9.140625 -6.46875 C 8.703125 -6.726562 8.109375 -6.953125 7.359375 -7.140625 L 5.515625 -7.578125 C 4.148438 -7.910156 3.144531 -8.4375 2.5 -9.15625 C 1.851562 -9.875 1.53125 -10.785156 1.53125 -11.890625 C 1.53125 -12.671875 1.726562 -13.367188 2.125 -13.984375 C 2.53125 -14.597656 3.117188 -15.078125 3.890625 -15.421875 C 4.660156 -15.765625 5.582031 -15.9375 6.65625 -15.9375 C 7.84375 -15.9375 8.84375 -15.769531 9.65625 -15.4375 C 10.46875 -15.101562 11.117188 -14.601562 11.609375 -13.9375 L 10.703125 -12.71875 L 10.4375 -12.71875 C 9.976562 -13.269531 9.441406 -13.671875 8.828125 -13.921875 C 8.210938 -14.179688 7.488281 -14.3125 6.65625 -14.3125 C 5.570312 -14.3125 4.75 -14.097656 4.1875 -13.671875 C 3.632812 -13.253906 3.359375 -12.675781 3.359375 -11.9375 C 3.359375 -11.226562 3.5625 -10.660156 3.96875 -10.234375 C 4.382812 -9.816406 5.070312 -9.492188 6.03125 -9.265625 L 7.921875 -8.8125 C 9.441406 -8.457031 10.539062 -7.910156 11.21875 -7.171875 C 11.90625 -6.429688 12.25 -5.484375 12.25 -4.328125 C 12.25 -3.441406 12.050781 -2.65625 11.65625 -1.96875 C 11.257812 -1.289062 10.65625 -0.753906 9.84375 -0.359375 C 9.039062 0.0234375 8.046875 0.21875 6.859375 0.21875 Z M 6.859375 0.21875 "/></g></g></g><g fill="#000000" fill-opacity="1"><g transform="translate(272.026289, 257.839289)"><g><path d="M 12.25 -15.703125 L 12.25 -14.140625 L 7.34375 -14.140625 L 7.34375 0 L 5.5 0 L 5.5 -14.140625 L 0.578125 -14.140625 L 0.578125 -15.703125 Z M 12.25 -15.703125 "/></g></g></g><g fill="#000000" fill-opacity="1"><g transform="translate(284.850171, 257.839289)"><g><path d="M 14.140625 0 L 12.15625 0 L 10.703125 -4.3125 L 4.015625 -4.3125 L 2.5625 0 L 0.625 0 L 6.109375 -15.703125 L 8.65625 -15.703125 Z M 7.234375 -13.796875 L 4.53125 -5.859375 L 10.1875 -5.859375 L 7.5 -13.796875 Z M 7.234375 -13.796875 "/></g></g></g><g fill="#000000" fill-opacity="1"><g transform="translate(299.607327, 257.839289)"><g><path d="M 4.171875 0 L 2.375 0 L 2.375 -15.703125 L 4.640625 -15.703125 L 12.296875 -3.703125 L 12.5625 -3.75 L 12.5625 -15.703125 L 14.359375 -15.703125 L 14.359375 0 L 12.421875 0 L 4.453125 -12.84375 L 4.171875 -12.796875 Z M 4.171875 0 "/></g></g></g><g fill="#000000" fill-opacity="1"><g transform="translate(316.351428, 257.839289)"><g><path d="M 12.25 -15.703125 L 12.25 -14.140625 L 7.34375 -14.140625 L 7.34375 0 L 5.5 0 L 5.5 -14.140625 L 0.578125 -14.140625 L 0.578125 -15.703125 Z M 12.25 -15.703125 "/></g></g></g></svg>