<svg xmlns="http://www.w3.org/2000/svg" xmlns:xlink="http://www.w3.org/1999/xlink" width="500" zoomAndPan="magnify" viewBox="60 55 255 255" height="500" preserveAspectRatio="xMidYMid meet" version="1.0"><defs><clipPath id="f6a636f913"><path d="M 61.417969 55.816406 L 313.582031 55.816406 L 313.582031 307.984375 L 61.417969 307.984375 Z M 61.417969 55.816406 " clip-rule="nonzero"/></clipPath><clipPath id="d6ab9cab26"><path d="M 78.667969 55.816406 L 296.332031 55.816406 C 300.910156 55.816406 305.296875 57.632812 308.53125 60.867188 C 311.765625 64.105469 313.582031 68.492188 313.582031 73.066406 L 313.582031 290.734375 C 313.582031 295.308594 311.765625 299.695312 308.53125 302.933594 C 305.296875 306.167969 300.910156 307.984375 296.332031 307.984375 L 78.667969 307.984375 C 74.089844 307.984375 69.703125 306.167969 66.46875 302.933594 C 63.234375 299.695312 61.417969 295.308594 61.417969 290.734375 L 61.417969 73.066406 C 61.417969 68.492188 63.234375 64.105469 66.46875 60.867188 C 69.703125 57.632812 74.089844 55.816406 78.667969 55.816406 Z M 78.667969 55.816406 " clip-rule="nonzero"/></clipPath><clipPath id="76496166cc"><path d="M 177.144531 91.679688 L 313.417969 91.679688 L 313.417969 228.929688 L 177.144531 228.929688 Z M 177.144531 91.679688 " clip-rule="nonzero"/></clipPath><clipPath id="977c249dbe"><path d="M 61.417969 91.679688 L 197.6875 91.679688 L 197.6875 228.765625 L 61.417969 228.765625 Z M 61.417969 91.679688 " clip-rule="nonzero"/></clipPath><clipPath id="47dcd76a01"><path d="M 124.136719 143.832031 L 250.886719 143.832031 L 250.886719 308.082031 L 124.136719 308.082031 Z M 124.136719 143.832031 " clip-rule="nonzero"/></clipPath></defs><g clip-path="url(#f6a636f913)"><g clip-path="url(#d6ab9cab26)"><path fill="#000000" d="M 61.417969 55.816406 L 313.582031 55.816406 L 313.582031 307.984375 L 61.417969 307.984375 Z M 61.417969 55.816406 " fill-opacity="1" fill-rule="nonzero"/></g></g><g clip-path="url(#76496166cc)"><path fill="#2fb33c" d="M 313.09375 157.433594 L 313.09375 155.546875 L 278.660156 155.546875 C 277.789062 155.546875 276.992188 156.128906 276.847656 156.996094 L 275.6875 161.925781 L 269.816406 132.203125 C 269.671875 131.335938 268.871094 130.683594 267.929688 130.683594 C 266.988281 130.683594 266.261719 131.335938 266.117188 132.277344 L 253.429688 211.660156 L 242.847656 93.421875 C 242.703125 92.40625 241.90625 91.679688 240.960938 91.679688 C 240.019531 91.679688 239.148438 92.40625 239.078125 93.421875 L 234.003906 148.515625 L 230.015625 141.121094 C 229.652344 140.46875 228.929688 140.035156 228.203125 140.105469 C 227.476562 140.179688 226.824219 140.6875 226.609375 141.410156 L 218.199219 167.074219 L 206.890625 136.335938 C 206.601562 135.613281 205.875 135.105469 205.078125 135.105469 C 204.28125 135.105469 203.554688 135.613281 203.339844 136.410156 L 196.886719 155.621094 L 61.902344 155.621094 L 61.902344 159.390625 L 198.191406 159.390625 C 198.988281 159.390625 199.714844 158.882812 200.003906 158.085938 L 205.222656 142.644531 L 216.605469 173.453125 C 216.894531 174.179688 217.621094 174.6875 218.34375 174.6875 L 218.417969 174.6875 C 219.214844 174.6875 219.9375 174.179688 220.15625 173.382812 L 228.855469 146.777344 L 233.714844 155.765625 C 234.074219 156.492188 234.945312 156.851562 235.742188 156.707031 C 236.539062 156.5625 237.191406 155.839844 237.265625 155.039062 L 241.035156 114.371094 L 251.113281 227.027344 C 251.183594 227.96875 251.980469 228.695312 252.925781 228.765625 L 252.996094 228.765625 C 253.9375 228.765625 254.734375 228.113281 254.882812 227.171875 L 268.292969 143.296875 L 273.800781 171.277344 C 273.945312 172.148438 274.746094 172.800781 275.613281 172.800781 C 276.484375 172.800781 277.28125 172.222656 277.5 171.351562 L 280.328125 159.316406 L 313.238281 159.316406 Z M 313.09375 157.433594 " fill-opacity="1" fill-rule="nonzero"/></g><g clip-path="url(#977c249dbe)"><path fill="#2fb33c" d="M 197.367188 163.015625 L 197.367188 164.898438 L 162.933594 164.898438 C 162.0625 164.898438 161.265625 164.320312 161.121094 163.449219 L 159.960938 158.519531 L 154.085938 188.242188 C 153.941406 189.113281 153.144531 189.765625 152.203125 189.765625 C 151.261719 189.765625 150.535156 189.113281 150.390625 188.171875 L 137.703125 108.789062 L 127.121094 227.027344 C 126.976562 228.042969 126.175781 228.765625 125.234375 228.765625 C 124.292969 228.765625 123.421875 228.042969 123.351562 227.027344 L 118.277344 171.929688 L 114.289062 179.324219 C 113.925781 179.976562 113.199219 180.414062 112.476562 180.339844 C 111.75 180.269531 111.097656 179.761719 110.882812 179.035156 L 102.472656 153.375 L 91.164062 184.109375 C 90.871094 184.835938 90.148438 185.34375 89.351562 185.34375 C 88.554688 185.34375 87.828125 184.835938 87.609375 184.039062 L 81.160156 164.828125 L -53.824219 164.828125 L -53.824219 161.058594 L 82.464844 161.058594 C 83.261719 161.058594 83.984375 161.566406 84.277344 162.363281 L 89.496094 177.804688 L 100.878906 146.992188 C 101.167969 146.269531 101.890625 145.761719 102.617188 145.761719 L 102.6875 145.761719 C 103.488281 145.761719 104.210938 146.269531 104.429688 147.066406 L 113.128906 173.671875 L 117.984375 164.683594 C 118.347656 163.957031 119.21875 163.59375 120.015625 163.738281 C 120.8125 163.886719 121.464844 164.609375 121.539062 165.40625 L 125.308594 206.078125 L 135.382812 93.421875 C 135.457031 92.476562 136.253906 91.753906 137.195312 91.679688 L 137.269531 91.679688 C 138.210938 91.679688 139.007812 92.332031 139.152344 93.277344 L 152.566406 177.152344 L 158.074219 149.167969 C 158.21875 148.296875 159.015625 147.644531 159.886719 147.644531 C 160.757812 147.644531 161.554688 148.226562 161.773438 149.097656 L 164.597656 161.128906 L 197.511719 161.128906 Z M 197.367188 163.015625 " fill-opacity="1" fill-rule="nonzero"/></g><g clip-path="url(#47dcd76a01)"><path fill="#ffffff" d="M 187.515625 252.542969 C 202.5 252.542969 214.589844 240.363281 214.589844 225.378906 L 214.679688 171.054688 C 214.679688 156.023438 202.546875 143.890625 187.515625 143.890625 C 172.53125 143.890625 160.351562 156.023438 160.351562 171.054688 L 160.351562 225.378906 C 160.351562 240.363281 172.53125 252.542969 187.515625 252.542969 Z M 235.503906 225.378906 C 235.503906 252.542969 212.550781 271.558594 187.515625 271.558594 C 162.527344 271.558594 139.527344 252.542969 139.527344 225.378906 L 124.136719 225.378906 C 124.136719 256.300781 148.761719 281.835938 178.460938 286.226562 L 178.460938 315.925781 L 196.570312 315.925781 L 196.570312 286.226562 C 226.269531 281.835938 250.898438 256.300781 250.898438 225.378906 Z M 235.503906 225.378906 " fill-opacity="1" fill-rule="nonzero"/></g></svg>