<svg xmlns="http://www.w3.org/2000/svg" xmlns:xlink="http://www.w3.org/1999/xlink" width="388" zoomAndPan="magnify" viewBox="0 0 291 96.749999" height="129" preserveAspectRatio="xMidYMid meet" version="1.0"><defs><g/><clipPath id="0febae3c1d"><path d="M 4.136719 4.050781 L 92.535156 4.050781 L 92.535156 92.449219 L 4.136719 92.449219 Z M 4.136719 4.050781 " clip-rule="nonzero"/></clipPath><clipPath id="5b3ba68b20"><path d="M 21.339844 4.050781 L 75.328125 4.050781 C 79.890625 4.050781 84.269531 5.863281 87.496094 9.089844 C 90.722656 12.316406 92.535156 16.691406 92.535156 21.257812 L 92.535156 75.246094 C 92.535156 79.808594 90.722656 84.183594 87.496094 87.410156 C 84.269531 90.636719 79.890625 92.449219 75.328125 92.449219 L 21.339844 92.449219 C 16.777344 92.449219 12.402344 90.636719 9.175781 87.410156 C 5.949219 84.183594 4.136719 79.808594 4.136719 75.246094 L 4.136719 21.257812 C 4.136719 16.691406 5.949219 12.316406 9.175781 9.089844 C 12.402344 5.863281 16.777344 4.050781 21.339844 4.050781 Z M 21.339844 4.050781 " clip-rule="nonzero"/></clipPath><clipPath id="3647669665"><path d="M 44.703125 16.621094 L 92.40625 16.621094 L 92.40625 64.5 L 44.703125 64.5 Z M 44.703125 16.621094 " clip-rule="nonzero"/></clipPath><clipPath id="f8e22d9977"><path d="M 4.136719 16.796875 L 51.835938 16.796875 L 51.835938 64.5 L 4.136719 64.5 Z M 4.136719 16.796875 " clip-rule="nonzero"/></clipPath><clipPath id="9f82c419c2"><path d="M 26.121094 34.90625 L 70.257812 34.90625 L 70.257812 92.507812 L 26.121094 92.507812 Z M 26.121094 34.90625 " clip-rule="nonzero"/></clipPath></defs><g fill="#000000" fill-opacity="1"><g transform="translate(100.372021, 70.636299)"><g><path d="M 3.296875 0 L 3.296875 -1.09375 C 4.609375 -1.519531 5.457031 -2.398438 5.84375 -3.734375 C 6.238281 -5.066406 6.4375 -7.144531 6.4375 -9.96875 L 6.4375 -40.265625 C 6.4375 -43.453125 6.238281 -45.960938 5.84375 -47.796875 C 5.457031 -49.628906 4.867188 -50.988281 4.078125 -51.875 C 3.296875 -52.769531 2.300781 -53.425781 1.09375 -53.84375 L 1.09375 -54.9375 L 12.875 -54.9375 L 32.25 -22.765625 L 50.703125 -54.9375 L 61.84375 -54.9375 L 61.84375 -53.84375 C 60.644531 -53.425781 59.648438 -52.769531 58.859375 -51.875 C 58.078125 -50.988281 57.488281 -49.628906 57.09375 -47.796875 C 56.707031 -45.960938 56.515625 -43.453125 56.515625 -40.265625 L 56.515625 -9.96875 C 56.515625 -7.144531 56.707031 -5.066406 57.09375 -3.734375 C 57.488281 -2.398438 58.335938 -1.519531 59.640625 -1.09375 L 59.640625 0 L 45.046875 0 L 45.046875 -1.09375 C 46.359375 -1.519531 47.207031 -2.398438 47.59375 -3.734375 C 47.988281 -5.066406 48.1875 -7.144531 48.1875 -9.96875 L 48.1875 -47.953125 L 29.359375 -14.90625 L 27.546875 -14.90625 L 7.84375 -47.25 L 7.84375 -14.671875 C 7.84375 -11.484375 8.050781 -8.972656 8.46875 -7.140625 C 8.894531 -5.304688 9.550781 -3.945312 10.4375 -3.0625 C 11.320312 -2.175781 12.445312 -1.519531 13.8125 -1.09375 L 13.8125 0 Z M 3.296875 0 "/></g></g></g><g fill="#000000" fill-opacity="1"><g transform="translate(165.907059, 70.636299)"><g><path d="M 3.6875 0 L 3.6875 -1.09375 C 5 -1.519531 5.847656 -2.398438 6.234375 -3.734375 C 6.628906 -5.066406 6.828125 -7.144531 6.828125 -9.96875 L 6.828125 -44.96875 C 6.828125 -47.789062 6.628906 -49.867188 6.234375 -51.203125 C 5.847656 -52.546875 5 -53.425781 3.6875 -53.84375 L 3.6875 -54.9375 L 18.28125 -54.9375 L 18.28125 -53.84375 C 16.976562 -53.425781 16.128906 -52.546875 15.734375 -51.203125 C 15.335938 -49.867188 15.140625 -47.789062 15.140625 -44.96875 L 15.140625 -9.96875 C 15.140625 -7.144531 15.335938 -5.066406 15.734375 -3.734375 C 16.128906 -2.398438 16.976562 -1.519531 18.28125 -1.09375 L 18.28125 0 Z M 3.6875 0 "/></g></g></g><g fill="#000000" fill-opacity="1"><g transform="translate(187.882881, 70.636299)"><g><path d="M 43.640625 0.546875 C 41.492188 0.546875 39.78125 0.0625 38.5 -0.90625 C 37.21875 -1.875 36.09375 -3.347656 35.125 -5.328125 C 34.15625 -7.316406 33.039062 -9.832031 31.78125 -12.875 C 30.632812 -15.75 29.664062 -18.164062 28.875 -20.125 C 28.09375 -22.09375 27.332031 -23.664062 26.59375 -24.84375 C 25.863281 -26.019531 24.976562 -26.867188 23.9375 -27.390625 C 22.894531 -27.910156 21.507812 -28.171875 19.78125 -28.171875 L 15.140625 -28.171875 L 15.140625 -9.96875 C 15.140625 -7.144531 15.335938 -5.066406 15.734375 -3.734375 C 16.128906 -2.398438 16.976562 -1.519531 18.28125 -1.09375 L 18.28125 0 L 3.6875 0 L 3.6875 -1.09375 C 5 -1.519531 5.847656 -2.398438 6.234375 -3.734375 C 6.628906 -5.066406 6.828125 -7.144531 6.828125 -9.96875 L 6.828125 -44.96875 C 6.828125 -47.789062 6.628906 -49.867188 6.234375 -51.203125 C 5.847656 -52.546875 5 -53.425781 3.6875 -53.84375 L 3.6875 -54.9375 L 20.171875 -54.9375 C 24.460938 -54.9375 27.953125 -54.582031 30.640625 -53.875 C 33.335938 -53.164062 35.414062 -52.222656 36.875 -51.046875 C 38.34375 -49.867188 39.363281 -48.519531 39.9375 -47 C 40.519531 -45.488281 40.8125 -43.945312 40.8125 -42.375 C 40.8125 -38.769531 39.554688 -35.710938 37.046875 -33.203125 C 34.535156 -30.691406 30.660156 -29.117188 25.421875 -28.484375 C 27.617188 -28.222656 29.4375 -27.78125 30.875 -27.15625 C 32.320312 -26.53125 33.554688 -25.628906 34.578125 -24.453125 C 35.597656 -23.273438 36.523438 -21.78125 37.359375 -19.96875 C 38.191406 -18.164062 39.132812 -15.957031 40.1875 -13.34375 C 41.59375 -9.882812 42.6875 -7.265625 43.46875 -5.484375 C 44.257812 -3.710938 44.992188 -2.523438 45.671875 -1.921875 C 46.359375 -1.316406 47.171875 -1.015625 48.109375 -1.015625 C 48.316406 -1.015625 48.507812 -1.015625 48.6875 -1.015625 C 48.875 -1.015625 49.070312 -1.039062 49.28125 -1.09375 L 49.28125 0 C 48.394531 0.207031 47.398438 0.347656 46.296875 0.421875 C 45.203125 0.503906 44.316406 0.546875 43.640625 0.546875 Z M 15.140625 -29.4375 L 20.171875 -29.4375 C 23.148438 -29.4375 25.539062 -29.929688 27.34375 -30.921875 C 29.15625 -31.910156 30.46875 -33.253906 31.28125 -34.953125 C 32.09375 -36.660156 32.5 -38.507812 32.5 -40.5 C 32.5 -42.644531 32.023438 -44.722656 31.078125 -46.734375 C 30.140625 -48.753906 28.648438 -50.414062 26.609375 -51.71875 C 24.566406 -53.03125 21.894531 -53.6875 18.59375 -53.6875 C 17.5 -53.6875 16.347656 -53.609375 15.140625 -53.453125 Z M 15.140625 -29.4375 "/></g></g></g><g fill="#000000" fill-opacity="1"><g transform="translate(236.38665, 70.636299)"><g><path d="M -1.640625 0 L -1.640625 -1.09375 C -0.441406 -1.519531 0.691406 -2.332031 1.765625 -3.53125 C 2.835938 -4.738281 3.894531 -6.648438 4.9375 -9.265625 L 19.625 -45.671875 C 20.195312 -47.140625 20.144531 -48.554688 19.46875 -49.921875 L 18.4375 -52.109375 L 26.140625 -55.5625 L 45.59375 -9.1875 C 46.695312 -6.625 47.757812 -4.738281 48.78125 -3.53125 C 49.800781 -2.332031 50.753906 -1.519531 51.640625 -1.09375 L 51.640625 0 L 37.359375 0 L 37.359375 -1.09375 C 38.671875 -1.519531 39.15625 -2.332031 38.8125 -3.53125 C 38.46875 -4.738281 37.75 -6.625 36.65625 -9.1875 L 31.9375 -20.484375 L 10.984375 -20.484375 L 6.4375 -9.265625 C 5.382812 -6.648438 4.960938 -4.710938 5.171875 -3.453125 C 5.390625 -2.191406 6.148438 -1.40625 7.453125 -1.09375 L 7.453125 0 Z M 11.453125 -21.734375 L 31.390625 -21.734375 L 21.265625 -45.984375 Z M 11.453125 -21.734375 "/></g></g></g><g fill="#000000" fill-opacity="1"><g transform="translate(106.730364, 86.207463)"><g><path d="M 5.234375 0 L 3.75 0 L 0.421875 -9.625 L 1.625 -9.625 L 4.4375 -1.421875 L 4.609375 -1.421875 L 7.40625 -9.625 L 8.578125 -9.625 Z M 5.234375 0 "/></g></g></g><g fill="#000000" fill-opacity="1"><g transform="translate(115.728437, 86.207463)"><g><path d="M 5.28125 0.140625 C 4.445312 0.140625 3.703125 -0.0351562 3.046875 -0.390625 C 2.398438 -0.753906 1.890625 -1.304688 1.515625 -2.046875 C 1.148438 -2.785156 0.96875 -3.707031 0.96875 -4.8125 C 0.96875 -5.914062 1.148438 -6.835938 1.515625 -7.578125 C 1.890625 -8.316406 2.398438 -8.863281 3.046875 -9.21875 C 3.703125 -9.582031 4.445312 -9.765625 5.28125 -9.765625 C 6.113281 -9.765625 6.851562 -9.582031 7.5 -9.21875 C 8.15625 -8.863281 8.664062 -8.316406 9.03125 -7.578125 C 9.40625 -6.835938 9.59375 -5.914062 9.59375 -4.8125 C 9.59375 -3.707031 9.40625 -2.785156 9.03125 -2.046875 C 8.664062 -1.304688 8.15625 -0.753906 7.5 -0.390625 C 6.851562 -0.0351562 6.113281 0.140625 5.28125 0.140625 Z M 5.28125 -0.90625 C 6.28125 -0.90625 7.046875 -1.21875 7.578125 -1.84375 C 8.117188 -2.46875 8.390625 -3.457031 8.390625 -4.8125 C 8.390625 -6.164062 8.117188 -7.15625 7.578125 -7.78125 C 7.046875 -8.40625 6.28125 -8.71875 5.28125 -8.71875 C 3.207031 -8.71875 2.171875 -7.414062 2.171875 -4.8125 C 2.171875 -2.207031 3.207031 -0.90625 5.28125 -0.90625 Z M 5.28125 -0.90625 "/></g></g></g><g fill="#000000" fill-opacity="1"><g transform="translate(126.294257, 86.207463)"><g><path d="M 2.59375 0 L 1.453125 0 L 1.453125 -9.625 L 2.59375 -9.625 Z M 2.59375 0 "/></g></g></g><g fill="#000000" fill-opacity="1"><g transform="translate(130.34537, 86.207463)"><g><path d="M 5.3125 0.140625 C 4.476562 0.140625 3.726562 -0.0507812 3.0625 -0.4375 C 2.40625 -0.820312 1.890625 -1.382812 1.515625 -2.125 C 1.148438 -2.875 0.96875 -3.769531 0.96875 -4.8125 C 0.96875 -5.851562 1.148438 -6.742188 1.515625 -7.484375 C 1.890625 -8.234375 2.40625 -8.800781 3.0625 -9.1875 C 3.726562 -9.570312 4.476562 -9.765625 5.3125 -9.765625 C 6.21875 -9.765625 6.96875 -9.59375 7.5625 -9.25 C 8.15625 -8.914062 8.585938 -8.40625 8.859375 -7.71875 L 8.125 -7.234375 L 7.96875 -7.234375 C 7.707031 -7.785156 7.363281 -8.175781 6.9375 -8.40625 C 6.519531 -8.632812 5.976562 -8.75 5.3125 -8.75 C 4.707031 -8.75 4.171875 -8.613281 3.703125 -8.34375 C 3.234375 -8.070312 2.859375 -7.644531 2.578125 -7.0625 C 2.304688 -6.476562 2.171875 -5.726562 2.171875 -4.8125 C 2.171875 -3.894531 2.304688 -3.144531 2.578125 -2.5625 C 2.859375 -1.976562 3.234375 -1.550781 3.703125 -1.28125 C 4.171875 -1.007812 4.707031 -0.875 5.3125 -0.875 C 6.007812 -0.875 6.582031 -1.03125 7.03125 -1.34375 C 7.476562 -1.664062 7.804688 -2.175781 8.015625 -2.875 L 8.1875 -2.875 L 8.9375 -2.5 C 8.707031 -1.644531 8.285156 -0.988281 7.671875 -0.53125 C 7.054688 -0.0820312 6.269531 0.140625 5.3125 0.140625 Z M 5.3125 0.140625 "/></g></g></g><g fill="#000000" fill-opacity="1"><g transform="translate(139.791372, 86.207463)"><g><path d="M 2.59375 -4.53125 L 2.59375 -0.9375 L 7.5 -0.9375 L 7.5 0 L 1.453125 0 L 1.453125 -9.625 L 7.390625 -9.625 L 7.390625 -8.6875 L 2.59375 -8.6875 L 2.59375 -5.46875 L 6.828125 -5.46875 L 6.828125 -4.53125 Z M 2.59375 -4.53125 "/></g></g></g><g fill="#000000" fill-opacity="1"><g transform="translate(147.92653, 86.207463)"><g/></g></g><g fill="#000000" fill-opacity="1"><g transform="translate(151.233289, 86.207463)"><g><path d="M 7.59375 -5.71875 L 7.59375 -9.625 L 8.71875 -9.625 L 8.71875 0 L 7.59375 0 L 7.59375 -4.765625 L 2.59375 -4.765625 L 2.59375 0 L 1.453125 0 L 1.453125 -9.625 L 2.59375 -9.625 L 2.59375 -5.71875 Z M 7.59375 -5.71875 "/></g></g></g><g fill="#000000" fill-opacity="1"><g transform="translate(161.417053, 86.207463)"><g><path d="M 2.59375 -4.53125 L 2.59375 -0.9375 L 7.5 -0.9375 L 7.5 0 L 1.453125 0 L 1.453125 -9.625 L 7.390625 -9.625 L 7.390625 -8.6875 L 2.59375 -8.6875 L 2.59375 -5.46875 L 6.828125 -5.46875 L 6.828125 -4.53125 Z M 2.59375 -4.53125 "/></g></g></g><g fill="#000000" fill-opacity="1"><g transform="translate(169.552211, 86.207463)"><g><path d="M 8.671875 0 L 7.453125 0 L 6.5625 -2.640625 L 2.46875 -2.640625 L 1.5625 0 L 0.375 0 L 3.734375 -9.625 L 5.3125 -9.625 Z M 4.4375 -8.453125 L 2.78125 -3.59375 L 6.234375 -3.59375 L 4.59375 -8.453125 Z M 4.4375 -8.453125 "/></g></g></g><g fill="#000000" fill-opacity="1"><g transform="translate(178.602982, 86.207463)"><g><path d="M 2.59375 -9.625 L 2.59375 -0.9375 L 7.21875 -0.9375 L 7.21875 0 L 1.453125 0 L 1.453125 -9.625 Z M 2.59375 -9.625 "/></g></g></g><g fill="#000000" fill-opacity="1"><g transform="translate(186.237515, 86.207463)"><g><path d="M 7.515625 -9.625 L 7.515625 -8.671875 L 4.5 -8.671875 L 4.5 0 L 3.375 0 L 3.375 -8.671875 L 0.359375 -8.671875 L 0.359375 -9.625 Z M 7.515625 -9.625 "/></g></g></g><g fill="#000000" fill-opacity="1"><g transform="translate(194.102595, 86.207463)"><g><path d="M 7.59375 -5.71875 L 7.59375 -9.625 L 8.71875 -9.625 L 8.71875 0 L 7.59375 0 L 7.59375 -4.765625 L 2.59375 -4.765625 L 2.59375 0 L 1.453125 0 L 1.453125 -9.625 L 2.59375 -9.625 L 2.59375 -5.71875 Z M 7.59375 -5.71875 "/></g></g></g><g fill="#000000" fill-opacity="1"><g transform="translate(204.286359, 86.207463)"><g/></g></g><g fill="#000000" fill-opacity="1"><g transform="translate(207.593118, 86.207463)"><g><path d="M 8.671875 0 L 7.453125 0 L 6.5625 -2.640625 L 2.46875 -2.640625 L 1.5625 0 L 0.375 0 L 3.734375 -9.625 L 5.3125 -9.625 Z M 4.4375 -8.453125 L 2.78125 -3.59375 L 6.234375 -3.59375 L 4.59375 -8.453125 Z M 4.4375 -8.453125 "/></g></g></g><g fill="#000000" fill-opacity="1"><g transform="translate(216.643889, 86.207463)"><g><path d="M 4.203125 0.140625 C 3.597656 0.140625 3.054688 0.0546875 2.578125 -0.109375 C 2.097656 -0.273438 1.695312 -0.488281 1.375 -0.75 C 1.050781 -1.019531 0.8125 -1.316406 0.65625 -1.640625 L 1.28125 -2.390625 L 1.4375 -2.390625 C 2.039062 -1.378906 2.960938 -0.875 4.203125 -0.875 C 4.929688 -0.875 5.472656 -1.023438 5.828125 -1.328125 C 6.179688 -1.640625 6.359375 -2.0625 6.359375 -2.59375 C 6.359375 -2.914062 6.296875 -3.1875 6.171875 -3.40625 C 6.054688 -3.625 5.863281 -3.8125 5.59375 -3.96875 C 5.332031 -4.125 4.972656 -4.257812 4.515625 -4.375 L 3.390625 -4.640625 C 2.546875 -4.847656 1.925781 -5.171875 1.53125 -5.609375 C 1.132812 -6.054688 0.9375 -6.613281 0.9375 -7.28125 C 0.9375 -7.757812 1.054688 -8.1875 1.296875 -8.5625 C 1.546875 -8.9375 1.90625 -9.226562 2.375 -9.4375 C 2.851562 -9.65625 3.421875 -9.765625 4.078125 -9.765625 C 4.804688 -9.765625 5.414062 -9.660156 5.90625 -9.453125 C 6.40625 -9.253906 6.804688 -8.953125 7.109375 -8.546875 L 6.5625 -7.796875 L 6.390625 -7.796875 C 6.117188 -8.128906 5.789062 -8.375 5.40625 -8.53125 C 5.03125 -8.695312 4.585938 -8.78125 4.078125 -8.78125 C 3.410156 -8.78125 2.90625 -8.648438 2.5625 -8.390625 C 2.226562 -8.128906 2.0625 -7.769531 2.0625 -7.3125 C 2.0625 -6.875 2.1875 -6.523438 2.4375 -6.265625 C 2.6875 -6.015625 3.109375 -5.820312 3.703125 -5.6875 L 4.859375 -5.40625 C 5.785156 -5.1875 6.457031 -4.847656 6.875 -4.390625 C 7.300781 -3.941406 7.515625 -3.363281 7.515625 -2.65625 C 7.515625 -2.113281 7.390625 -1.628906 7.140625 -1.203125 C 6.898438 -0.785156 6.53125 -0.457031 6.03125 -0.21875 C 5.539062 0.0195312 4.929688 0.140625 4.203125 0.140625 Z M 4.203125 0.140625 "/></g></g></g><g fill="#000000" fill-opacity="1"><g transform="translate(224.897616, 86.207463)"><g><path d="M 4.203125 0.140625 C 3.597656 0.140625 3.054688 0.0546875 2.578125 -0.109375 C 2.097656 -0.273438 1.695312 -0.488281 1.375 -0.75 C 1.050781 -1.019531 0.8125 -1.316406 0.65625 -1.640625 L 1.28125 -2.390625 L 1.4375 -2.390625 C 2.039062 -1.378906 2.960938 -0.875 4.203125 -0.875 C 4.929688 -0.875 5.472656 -1.023438 5.828125 -1.328125 C 6.179688 -1.640625 6.359375 -2.0625 6.359375 -2.59375 C 6.359375 -2.914062 6.296875 -3.1875 6.171875 -3.40625 C 6.054688 -3.625 5.863281 -3.8125 5.59375 -3.96875 C 5.332031 -4.125 4.972656 -4.257812 4.515625 -4.375 L 3.390625 -4.640625 C 2.546875 -4.847656 1.925781 -5.171875 1.53125 -5.609375 C 1.132812 -6.054688 0.9375 -6.613281 0.9375 -7.28125 C 0.9375 -7.757812 1.054688 -8.1875 1.296875 -8.5625 C 1.546875 -8.9375 1.90625 -9.226562 2.375 -9.4375 C 2.851562 -9.65625 3.421875 -9.765625 4.078125 -9.765625 C 4.804688 -9.765625 5.414062 -9.660156 5.90625 -9.453125 C 6.40625 -9.253906 6.804688 -8.953125 7.109375 -8.546875 L 6.5625 -7.796875 L 6.390625 -7.796875 C 6.117188 -8.128906 5.789062 -8.375 5.40625 -8.53125 C 5.03125 -8.695312 4.585938 -8.78125 4.078125 -8.78125 C 3.410156 -8.78125 2.90625 -8.648438 2.5625 -8.390625 C 2.226562 -8.128906 2.0625 -7.769531 2.0625 -7.3125 C 2.0625 -6.875 2.1875 -6.523438 2.4375 -6.265625 C 2.6875 -6.015625 3.109375 -5.820312 3.703125 -5.6875 L 4.859375 -5.40625 C 5.785156 -5.1875 6.457031 -4.847656 6.875 -4.390625 C 7.300781 -3.941406 7.515625 -3.363281 7.515625 -2.65625 C 7.515625 -2.113281 7.390625 -1.628906 7.140625 -1.203125 C 6.898438 -0.785156 6.53125 -0.457031 6.03125 -0.21875 C 5.539062 0.0195312 4.929688 0.140625 4.203125 0.140625 Z M 4.203125 0.140625 "/></g></g></g><g fill="#000000" fill-opacity="1"><g transform="translate(233.15135, 86.207463)"><g><path d="M 2.59375 0 L 1.453125 0 L 1.453125 -9.625 L 2.59375 -9.625 Z M 2.59375 0 "/></g></g></g><g fill="#000000" fill-opacity="1"><g transform="translate(237.202463, 86.207463)"><g><path d="M 4.203125 0.140625 C 3.597656 0.140625 3.054688 0.0546875 2.578125 -0.109375 C 2.097656 -0.273438 1.695312 -0.488281 1.375 -0.75 C 1.050781 -1.019531 0.8125 -1.316406 0.65625 -1.640625 L 1.28125 -2.390625 L 1.4375 -2.390625 C 2.039062 -1.378906 2.960938 -0.875 4.203125 -0.875 C 4.929688 -0.875 5.472656 -1.023438 5.828125 -1.328125 C 6.179688 -1.640625 6.359375 -2.0625 6.359375 -2.59375 C 6.359375 -2.914062 6.296875 -3.1875 6.171875 -3.40625 C 6.054688 -3.625 5.863281 -3.8125 5.59375 -3.96875 C 5.332031 -4.125 4.972656 -4.257812 4.515625 -4.375 L 3.390625 -4.640625 C 2.546875 -4.847656 1.925781 -5.171875 1.53125 -5.609375 C 1.132812 -6.054688 0.9375 -6.613281 0.9375 -7.28125 C 0.9375 -7.757812 1.054688 -8.1875 1.296875 -8.5625 C 1.546875 -8.9375 1.90625 -9.226562 2.375 -9.4375 C 2.851562 -9.65625 3.421875 -9.765625 4.078125 -9.765625 C 4.804688 -9.765625 5.414062 -9.660156 5.90625 -9.453125 C 6.40625 -9.253906 6.804688 -8.953125 7.109375 -8.546875 L 6.5625 -7.796875 L 6.390625 -7.796875 C 6.117188 -8.128906 5.789062 -8.375 5.40625 -8.53125 C 5.03125 -8.695312 4.585938 -8.78125 4.078125 -8.78125 C 3.410156 -8.78125 2.90625 -8.648438 2.5625 -8.390625 C 2.226562 -8.128906 2.0625 -7.769531 2.0625 -7.3125 C 2.0625 -6.875 2.1875 -6.523438 2.4375 -6.265625 C 2.6875 -6.015625 3.109375 -5.820312 3.703125 -5.6875 L 4.859375 -5.40625 C 5.785156 -5.1875 6.457031 -4.847656 6.875 -4.390625 C 7.300781 -3.941406 7.515625 -3.363281 7.515625 -2.65625 C 7.515625 -2.113281 7.390625 -1.628906 7.140625 -1.203125 C 6.898438 -0.785156 6.53125 -0.457031 6.03125 -0.21875 C 5.539062 0.0195312 4.929688 0.140625 4.203125 0.140625 Z M 4.203125 0.140625 "/></g></g></g><g fill="#000000" fill-opacity="1"><g transform="translate(245.456197, 86.207463)"><g><path d="M 7.515625 -9.625 L 7.515625 -8.671875 L 4.5 -8.671875 L 4.5 0 L 3.375 0 L 3.375 -8.671875 L 0.359375 -8.671875 L 0.359375 -9.625 Z M 7.515625 -9.625 "/></g></g></g><g fill="#000000" fill-opacity="1"><g transform="translate(253.321271, 86.207463)"><g><path d="M 8.671875 0 L 7.453125 0 L 6.5625 -2.640625 L 2.46875 -2.640625 L 1.5625 0 L 0.375 0 L 3.734375 -9.625 L 5.3125 -9.625 Z M 4.4375 -8.453125 L 2.78125 -3.59375 L 6.234375 -3.59375 L 4.59375 -8.453125 Z M 4.4375 -8.453125 "/></g></g></g><g fill="#000000" fill-opacity="1"><g transform="translate(262.372049, 86.207463)"><g><path d="M 2.5625 0 L 1.453125 0 L 1.453125 -9.625 L 2.84375 -9.625 L 7.53125 -2.265625 L 7.703125 -2.296875 L 7.703125 -9.625 L 8.796875 -9.625 L 8.796875 0 L 7.625 0 L 2.71875 -7.875 L 2.5625 -7.84375 Z M 2.5625 0 "/></g></g></g><g fill="#000000" fill-opacity="1"><g transform="translate(272.64145, 86.207463)"><g><path d="M 7.515625 -9.625 L 7.515625 -8.671875 L 4.5 -8.671875 L 4.5 0 L 3.375 0 L 3.375 -8.671875 L 0.359375 -8.671875 L 0.359375 -9.625 Z M 7.515625 -9.625 "/></g></g></g><g clip-path="url(#0febae3c1d)"><g clip-path="url(#5b3ba68b20)"><path fill="#000000" d="M 4.136719 4.050781 L 92.535156 4.050781 L 92.535156 92.449219 L 4.136719 92.449219 Z M 4.136719 4.050781 " fill-opacity="1" fill-rule="nonzero"/></g></g><g clip-path="url(#3647669665)"><path fill="#2fb33c" d="M 92.351562 39.671875 L 92.351562 39.007812 L 80.28125 39.007812 C 79.976562 39.007812 79.699219 39.214844 79.648438 39.519531 L 79.242188 41.246094 L 77.183594 30.828125 C 77.132812 30.523438 76.851562 30.292969 76.523438 30.292969 C 76.191406 30.292969 75.9375 30.523438 75.886719 30.851562 L 71.441406 58.675781 L 67.730469 17.234375 C 67.679688 16.878906 67.398438 16.621094 67.070312 16.621094 C 66.738281 16.621094 66.433594 16.878906 66.410156 17.234375 L 64.628906 36.542969 L 63.234375 33.953125 C 63.105469 33.722656 62.851562 33.570312 62.597656 33.597656 C 62.34375 33.621094 62.113281 33.800781 62.039062 34.054688 L 59.089844 43.050781 L 55.125 32.277344 C 55.023438 32.023438 54.769531 31.84375 54.492188 31.84375 C 54.210938 31.84375 53.957031 32.023438 53.882812 32.300781 L 51.621094 39.035156 L 4.304688 39.035156 L 4.304688 40.355469 L 52.078125 40.355469 C 52.355469 40.355469 52.609375 40.179688 52.710938 39.898438 L 54.542969 34.488281 L 58.53125 45.285156 C 58.632812 45.539062 58.886719 45.71875 59.140625 45.71875 L 59.167969 45.71875 C 59.445312 45.71875 59.699219 45.539062 59.777344 45.261719 L 62.824219 35.933594 L 64.527344 39.085938 C 64.65625 39.339844 64.960938 39.46875 65.238281 39.417969 C 65.519531 39.367188 65.75 39.113281 65.773438 38.832031 L 67.09375 24.578125 L 70.628906 64.066406 C 70.652344 64.394531 70.933594 64.648438 71.261719 64.675781 L 71.289062 64.675781 C 71.617188 64.675781 71.898438 64.445312 71.949219 64.117188 L 76.648438 34.714844 L 78.582031 44.523438 C 78.632812 44.828125 78.910156 45.058594 79.214844 45.058594 C 79.519531 45.058594 79.800781 44.855469 79.875 44.550781 L 80.867188 40.332031 L 92.402344 40.332031 Z M 92.351562 39.671875 " fill-opacity="1" fill-rule="nonzero"/></g><g clip-path="url(#f8e22d9977)"><path fill="#2fb33c" d="M 51.785156 41.628906 L 51.785156 42.289062 L 39.714844 42.289062 C 39.410156 42.289062 39.128906 42.085938 39.078125 41.78125 L 38.671875 40.050781 L 36.613281 50.46875 C 36.5625 50.773438 36.285156 51.003906 35.953125 51.003906 C 35.621094 51.003906 35.367188 50.773438 35.316406 50.445312 L 30.871094 22.621094 L 27.160156 64.066406 C 27.109375 64.421875 26.832031 64.675781 26.5 64.675781 C 26.167969 64.675781 25.863281 64.421875 25.839844 64.066406 L 24.0625 44.753906 L 22.664062 47.34375 C 22.535156 47.574219 22.28125 47.726562 22.027344 47.699219 C 21.773438 47.675781 21.546875 47.496094 21.46875 47.242188 L 18.519531 38.246094 L 14.558594 49.023438 C 14.457031 49.277344 14.203125 49.453125 13.921875 49.453125 C 13.640625 49.453125 13.386719 49.277344 13.3125 48.996094 L 11.050781 42.261719 L -36.265625 42.261719 L -36.265625 40.941406 L 11.507812 40.941406 C 11.789062 40.941406 12.042969 41.117188 12.144531 41.398438 L 13.972656 46.8125 L 17.960938 36.011719 C 18.0625 35.757812 18.316406 35.578125 18.570312 35.578125 L 18.597656 35.578125 C 18.878906 35.578125 19.132812 35.757812 19.207031 36.035156 L 22.257812 45.363281 L 23.960938 42.210938 C 24.085938 41.957031 24.390625 41.832031 24.671875 41.882812 C 24.949219 41.933594 25.179688 42.1875 25.203125 42.464844 L 26.527344 56.722656 L 30.058594 17.234375 C 30.082031 16.902344 30.363281 16.648438 30.691406 16.621094 L 30.71875 16.621094 C 31.046875 16.621094 31.328125 16.851562 31.378906 17.183594 L 36.078125 46.582031 L 38.011719 36.773438 C 38.0625 36.46875 38.339844 36.238281 38.648438 36.238281 C 38.953125 36.238281 39.230469 36.441406 39.308594 36.75 L 40.296875 40.964844 L 51.835938 40.964844 Z M 51.785156 41.628906 " fill-opacity="1" fill-rule="nonzero"/></g><g clip-path="url(#9f82c419c2)"><path fill="#ffffff" d="M 48.339844 73.015625 C 53.59375 73.015625 57.832031 68.746094 57.832031 63.492188 L 57.863281 44.445312 C 57.863281 39.175781 53.609375 34.921875 48.339844 34.921875 C 43.089844 34.921875 38.820312 39.175781 38.820312 44.445312 L 38.820312 63.492188 C 38.820312 68.746094 43.089844 73.015625 48.339844 73.015625 Z M 65.164062 63.492188 C 65.164062 73.015625 57.117188 79.679688 48.339844 79.679688 C 39.582031 79.679688 31.519531 73.015625 31.519531 63.492188 L 26.121094 63.492188 C 26.121094 74.332031 34.753906 83.285156 45.167969 84.824219 L 45.167969 95.234375 L 51.515625 95.234375 L 51.515625 84.824219 C 61.925781 83.285156 70.5625 74.332031 70.5625 63.492188 Z M 65.164062 63.492188 " fill-opacity="1" fill-rule="nonzero"/></g></svg>